<svg viewBox="0 0 148 151" fill="none" xmlns="http://www.w3.org/2000/svg">
<path d="M73.6531 101.361C75.0262 97.7629 77.9926 91.3995 84.1628 85.4193C90.1126 79.6556 96.3337 76.8403 99.9612 75.5077C96.1472 73.7919 90.6381 70.7934 85.1968 65.6627C78.9588 59.7824 75.5008 53.6356 73.6531 49.6543C72.4666 53.1025 69.8222 59.316 63.991 65.1963C57.7191 71.5431 50.8878 74.325 47.3281 75.5077C51.0065 76.9236 57.1428 79.8388 63.0418 85.5525C69.1441 91.4662 72.1784 97.6963 73.6531 101.361Z" fill="var(--sparkle-fill, transparent)" stroke="var(--sparkle-stroke, #ffffff)" stroke-width="8" stroke-miterlimit="10" stroke-linecap="round"/>
<path d="M73.6484 49.6396V20.0215" stroke="var(--sparkle-stroke, #ffffff)" stroke-width="8" stroke-miterlimit="10" stroke-linecap="round"/>
<path d="M73.6484 8.74756V4" stroke="var(--sparkle-stroke, #ffffff)" stroke-width="8" stroke-miterlimit="10" stroke-linecap="round"/>
<path d="M11.2194 75.5078H4" stroke="var(--sparkle-stroke, #ffffff)" stroke-width="8" stroke-miterlimit="10" stroke-linecap="round"/>
<path d="M143.301 75.5078H138.453" stroke="var(--sparkle-stroke, #ffffff)" stroke-width="8" stroke-miterlimit="10" stroke-linecap="round"/>
<path d="M73.6484 147V142.252" stroke="var(--sparkle-stroke, #ffffff)" stroke-width="8" stroke-miterlimit="10" stroke-linecap="round"/>
<path d="M73.6484 130.979V101.361" stroke="var(--sparkle-stroke, #ffffff)" stroke-width="8" stroke-miterlimit="10" stroke-linecap="round"/>
<path d="M52.1859 75.5078H22.0469" stroke="var(--sparkle-stroke, #ffffff)" stroke-width="8" stroke-miterlimit="10" stroke-linecap="round"/>
<path d="M127.266 75.5078H97.127" stroke="var(--sparkle-stroke, #ffffff)" stroke-width="8" stroke-miterlimit="10" stroke-linecap="round"/>
</svg>
