{
	"asset":{
		"version":"2.0",
		"generator":"Created using the official Cinema 4D glTF Exporter 1.000x284978"
	},
	"scenes":[{
		"nodes":[0]
	}],
	"nodes":[{
		"name":"Cone",
		"mesh":0
	}],
	"meshes":[{
		"name":"Cone",
		"primitives":[{
			"attributes":{
				"POSITION":1,
				"NORMAL":2,
				"TEXCOORD_0":3
			},
			"indices":0
		}]
	}],
	"accessors":[{
		"bufferView":0,
		"min":[0],
		"type":"SCALAR",
		"componentType":5123,
		"count":135,
		"max":[61],
		"byteOffset":0
	},
	{
		"bufferView":1,
		"min":[-118.92549896240235,
		-100.0,
		-139.80531311035157],
		"type":"VEC3",
		"componentType":5126,
		"count":62,
		"max":[147.0,
		100.0,
		139.80531311035157],
		"byteOffset":0
	},
	{
		"bufferView":1,
		"min":[-0.8595235347747803,
		-1.0,
		-0.8174554705619812],
		"type":"VEC3",
		"componentType":5126,
		"count":62,
		"max":[0.6953691840171814,
		0.5110964179039002,
		0.8174554705619812],
		"byteOffset":12
	},
	{
		"bufferView":1,
		"min":[0.0,
		0.0],
		"type":"VEC2",
		"componentType":5126,
		"count":62,
		"max":[1.0,
		1.0],
		"byteOffset":24
	}],
	"bufferViews":[{
		"buffer":0,
		"byteOffset":0,
		"byteLength":270,
		"target":34963
	},
	{
		"buffer":0,
		"byteOffset":272,
		"byteLength":1984,
		"target":34962,
		"byteStride":32
	}],
	"buffers":[{
		"uri":"data:application/octet-stream;base64,",
		"byteLength":2256
	}]
}