<svg width="1805" height="182" viewBox="0 0 1805 182" fill="none" xmlns="http://www.w3.org/2000/svg">
<path d="M106.2 118.2L104.6 117.4C92 140.2 82.2 145.6 34 146V5.59999H2V6.6C19.4 6.6 20 10.6 20 34.6V129C20 135.8 19.6 144.4 17.2 150H34H97.2L106.2 118.2ZM215.705 117.4C203.905 140.8 184.905 144.8 153.705 144.8C146.905 145 145.105 142.8 145.105 135.6V66.6H173.905C189.705 66.6 197.705 68.4 204.305 77V53C197.705 59.4 189.705 63.4 173.905 63.4H145.105V9.19999H165.705C187.305 9.19999 193.705 12 205.505 32.6L206.905 32L199.105 5.59999H114.305V6.6C131.705 6.6 131.105 10.6 131.105 34.6V136.8C131.105 141.6 130.305 146 129.105 150H207.505L217.305 118.2L215.705 117.4ZM348.481 5.59999C358.081 9.79999 361.481 18.6 357.281 29.6L327.081 107.2C322.281 119.4 319.681 124.6 318.481 129.8C317.881 124.6 315.481 116.8 313.481 112L276.081 23C271.481 12.2 271.081 9.19999 271.081 5.59999H240.281V6.6C249.881 7.6 255.881 12 261.281 25L315.081 152.4L360.681 32.6C369.081 10.6 371.481 7.19999 377.081 6.6V5.59999H348.481ZM490.705 117.4C478.905 140.8 459.905 144.8 428.705 144.8C421.905 145 420.105 142.8 420.105 135.6V66.6H448.905C464.705 66.6 472.705 68.4 479.305 77V53C472.705 59.4 464.705 63.4 448.905 63.4H420.105V9.19999H440.705C462.305 9.19999 468.705 12 480.505 32.6L481.905 32L474.105 5.59999H389.305V6.6C406.705 6.6 406.105 10.6 406.105 34.6V136.8C406.105 141.6 405.305 146 404.105 150H482.505L492.305 118.2L490.705 117.4ZM603.075 118.2L601.475 117.4C588.875 140.2 579.075 145.6 530.875 146V5.59999H498.875V6.6C516.275 6.6 516.875 10.6 516.875 34.6V129C516.875 135.8 516.475 144.4 514.075 150H530.875H594.075L603.075 118.2ZM697.281 83.8C704.081 85.4 710.881 86.2 717.281 86.2C746.881 86.2 772.281 70.2 772.281 40.4C772.281 21.6 756.881 4.39999 733.281 4.39999C722.881 4.39999 710.881 7.6 697.881 15.8V5.59999H665.281V6.6C682.881 6.6 683.281 7.99999 683.281 33.2V132.2C683.281 140.4 682.281 145.2 678.881 150H700.881C697.481 145.2 697.281 139.8 697.281 132.2V83.8ZM697.281 19.4C707.681 13.6 716.881 11.2 724.681 11.2C744.881 11.2 756.081 27.6 756.081 44.4C756.081 67.8 737.681 81.2 713.481 81.2C708.281 81.2 702.881 80.4 697.281 79.2V19.4ZM843.338 85.2C876.738 82 894.937 58 894.937 40.4C894.937 21.6 879.538 4.39999 855.938 4.39999C845.538 4.39999 833.538 7.6 820.538 15.8V5.59999H787.938V6.6C805.538 6.6 805.938 7.99999 805.938 33.2V132.2C805.938 140.4 804.938 145.2 801.538 150H823.538C820.138 145.2 819.938 139.8 819.938 132.2V83.8C836.938 87 852.338 89.6 873.138 124.4C890.138 152.8 892.137 168 929.938 179.4L930.338 178C890.738 163.4 893.738 92.6 843.338 86.2V85.2ZM819.938 19.4C830.338 13.6 839.538 11.2 847.338 11.2C867.538 11.2 878.738 27.6 878.738 44.4C878.738 67.8 859.338 82 836.938 82C831.338 82 825.738 81 819.938 79.2V19.4ZM909.953 78C909.953 128.2 945.753 153.4 985.353 153.4C1024.75 153.4 1060.15 128.4 1060.15 78C1060.15 27.6 1024.75 2.39999 985.153 2.39999C947.753 2.39999 909.953 29 909.953 78ZM983.953 7.6C1024.95 7.6 1045.35 45.2 1045.35 81.2C1045.35 115.4 1027.15 148.8 986.953 148.8C944.953 148.8 924.553 112 924.553 76C924.553 41.8 942.753 7.6 983.953 7.6ZM1195.97 5.59999H1085.97C1085.77 12 1084.97 23.2 1080.77 36L1082.17 36.6C1090.77 14.6 1098.97 9.19999 1123.37 9.19999H1133.97V132.2C1133.97 141.2 1133.17 144.6 1130.17 150H1151.77C1148.77 144.6 1147.97 141.2 1147.97 132.2V9.19999H1158.57C1182.37 9.19999 1191.77 14.6 1199.57 36.6L1200.97 36C1197.17 23.2 1196.17 12 1195.97 5.59999ZM1209.37 78C1209.37 128.2 1245.17 153.4 1284.77 153.4C1324.17 153.4 1359.57 128.4 1359.57 78C1359.57 27.6 1324.17 2.39999 1284.57 2.39999C1247.17 2.39999 1209.37 29 1209.37 78ZM1283.37 7.6C1324.37 7.6 1344.77 45.2 1344.77 81.2C1344.77 115.4 1326.57 148.8 1286.37 148.8C1244.37 148.8 1223.97 112 1223.97 76C1223.97 41.8 1242.17 7.6 1283.37 7.6ZM1517.89 113.2L1516.69 112.4C1504.09 138.4 1485.09 148.4 1464.89 149.6C1431.89 151.6 1404.89 125.2 1402.89 78.2C1401.09 34 1429.09 6.39999 1465.09 6.39999C1489.69 6.39999 1505.09 19.8 1511.29 40L1513.09 39.8L1510.69 12C1496.89 5.99999 1485.09 3 1470.49 3C1423.89 3 1385.49 32 1387.69 83.4C1389.69 130 1423.09 155.8 1465.09 153.8C1481.09 153 1496.09 149.8 1510.29 140.4L1517.89 113.2ZM1536.52 78C1536.52 128.2 1572.32 153.4 1611.92 153.4C1651.32 153.4 1686.72 128.4 1686.72 78C1686.72 27.6 1651.32 2.39999 1611.72 2.39999C1574.32 2.39999 1536.52 29 1536.52 78ZM1610.52 7.6C1651.52 7.6 1671.92 45.2 1671.92 81.2C1671.92 115.4 1653.72 148.8 1613.52 148.8C1571.52 148.8 1551.12 112 1551.12 76C1551.12 41.8 1569.32 7.6 1610.52 7.6ZM1802.29 118.2L1800.69 117.4C1788.09 140.2 1778.29 145.6 1730.09 146V5.59999H1698.09V6.6C1715.49 6.6 1716.09 10.6 1716.09 34.6V129C1716.09 135.8 1715.69 144.4 1713.29 150H1730.09H1793.29L1802.29 118.2Z" fill="black"/>
<path d="M106.2 118.2L108.124 118.745L108.575 117.152L107.094 116.411L106.2 118.2ZM104.6 117.4L105.494 115.611L103.778 114.753L102.85 116.433L104.6 117.4ZM34 146H32V148.017L34.0166 148L34 146ZM34 5.59999H36V3.59999H34V5.59999ZM2 5.59999V3.59999H0V5.59999H2ZM2 6.6H0V8.6H2V6.6ZM17.2 150L15.3617 149.212L14.1669 152H17.2V150ZM97.2 150V152H98.7125L99.1244 150.545L97.2 150ZM107.094 116.411L105.494 115.611L103.706 119.189L105.306 119.989L107.094 116.411ZM102.85 116.433C96.6263 127.694 91.3037 134.269 81.871 138.258C72.234 142.333 58.1146 143.8 33.9834 144L34.0166 148C58.0854 147.8 72.966 146.367 83.429 141.942C94.0963 137.431 99.9737 129.906 106.35 118.367L102.85 116.433ZM36 146V5.59999H32V146H36ZM34 3.59999H2V7.59999H34V3.59999ZM0 5.59999V6.6H4V5.59999H0ZM2 8.6C6.32384 8.6 9.37409 8.85518 11.5791 9.51585C13.6796 10.1452 14.9297 11.1148 15.7959 12.605C16.7306 14.2132 17.3205 16.6006 17.642 20.2743C17.9611 23.9217 18 28.5819 18 34.6H22C22 28.6181 21.9639 23.7783 21.6268 19.9257C21.292 16.0994 20.6444 12.9868 19.2541 10.5949C17.7953 8.08521 15.633 6.55479 12.7272 5.68415C9.92591 4.84482 6.37617 4.6 2 4.6V8.6ZM18 34.6V129H22V34.6H18ZM18 129C18 135.846 17.577 144.043 15.3617 149.212L19.0383 150.788C21.623 144.757 22 135.754 22 129H18ZM17.2 152H34V148H17.2V152ZM34 152H97.2V148H34V152ZM99.1244 150.545L108.124 118.745L104.276 117.655L95.2756 149.455L99.1244 150.545ZM215.705 117.4L216.599 115.611L214.816 114.72L213.919 116.499L215.705 117.4ZM153.705 144.8V142.8H153.675L153.646 142.801L153.705 144.8ZM145.105 66.6V64.6H143.105V66.6H145.105ZM204.305 77L202.718 78.2176L206.305 82.8911V77H204.305ZM204.305 53H206.305V48.2747L202.912 51.5642L204.305 53ZM145.105 63.4H143.105V65.4H145.105V63.4ZM145.105 9.19999V7.19999H143.105V9.19999H145.105ZM205.505 32.6L203.769 33.5941L204.655 35.1402L206.293 34.4383L205.505 32.6ZM206.905 32L207.693 33.8383L209.326 33.138L208.823 31.4333L206.905 32ZM199.105 5.59999L201.023 5.03329L200.599 3.59999H199.105V5.59999ZM114.305 5.59999V3.59999H112.305V5.59999H114.305ZM114.305 6.6H112.305V8.6H114.305V6.6ZM129.105 150L127.189 149.425L126.417 152H129.105V150ZM207.505 150V152H208.981L209.416 150.589L207.505 150ZM217.305 118.2L219.216 118.789L219.715 117.169L218.199 116.411L217.305 118.2ZM213.919 116.499C208.223 127.794 200.884 134.278 191.257 138.01C181.504 141.791 169.278 142.8 153.705 142.8V146.8C169.331 146.8 182.205 145.809 192.703 141.74C203.326 137.622 211.386 130.406 217.49 118.301L213.919 116.499ZM153.646 142.801C150.326 142.899 148.995 142.353 148.332 141.627C147.597 140.822 147.105 139.201 147.105 135.6H143.105C143.105 139.199 143.512 142.278 145.377 144.323C147.315 146.447 150.284 146.901 153.763 146.799L153.646 142.801ZM147.105 135.6V66.6H143.105V135.6H147.105ZM145.105 68.6H173.905V64.6H145.105V68.6ZM173.905 68.6C181.776 68.6 187.462 69.0556 191.949 70.4811C196.335 71.8745 199.651 74.2209 202.718 78.2176L205.891 75.7824C202.359 71.1791 198.375 68.3255 193.16 66.6689C188.047 65.0444 181.833 64.6 173.905 64.6V68.6ZM206.305 77V53H202.305V77H206.305ZM202.912 51.5642C199.768 54.6137 196.345 57.0427 191.852 58.7273C187.339 60.4201 181.641 61.4 173.905 61.4V65.4C181.969 65.4 188.171 64.3799 193.257 62.4727C198.365 60.5573 202.242 57.7863 205.697 54.4358L202.912 51.5642ZM173.905 61.4H145.105V65.4H173.905V61.4ZM147.105 63.4V9.19999H143.105V63.4H147.105ZM145.105 11.2H165.705V7.19999H145.105V11.2ZM165.705 11.2C176.51 11.2 183.022 11.9255 188.293 14.9147C193.561 17.9019 197.886 23.3234 203.769 33.5941L207.24 31.6059C201.323 21.2766 196.549 14.9981 190.266 11.4353C183.987 7.8745 176.499 7.19999 165.705 7.19999V11.2ZM206.293 34.4383L207.693 33.8383L206.117 30.1617L204.717 30.7617L206.293 34.4383ZM208.823 31.4333L201.023 5.03329L197.187 6.16668L204.987 32.5667L208.823 31.4333ZM199.105 3.59999H114.305V7.59999H199.105V3.59999ZM112.305 5.59999V6.6H116.305V5.59999H112.305ZM114.305 8.6C118.636 8.6 121.595 8.85678 123.672 9.50829C125.618 10.119 126.708 11.0467 127.445 12.5033C128.26 14.1119 128.717 16.5069 128.93 20.2148C129.141 23.8908 129.105 28.5599 129.105 34.6H133.105C133.105 28.6401 133.143 23.8092 132.923 19.9852C132.705 16.1931 132.225 13.0881 131.014 10.6967C129.726 8.15327 127.704 6.58098 124.869 5.6917C122.164 4.84322 118.674 4.6 114.305 4.6V8.6ZM129.105 34.6V136.8H133.105V34.6H129.105ZM129.105 136.8C129.105 141.374 128.343 145.579 127.189 149.425L131.02 150.575C132.267 146.421 133.105 141.826 133.105 136.8H129.105ZM129.105 152H207.505V148H129.105V152ZM209.416 150.589L219.216 118.789L215.393 117.611L205.593 149.411L209.416 150.589ZM218.199 116.411L216.599 115.611L214.81 119.189L216.41 119.989L218.199 116.411ZM348.481 5.59999V3.59999L347.68 7.4323L348.481 5.59999ZM357.281 29.6L359.145 30.3254L359.15 30.3134L357.281 29.6ZM327.081 107.2L328.942 107.932L328.945 107.925L327.081 107.2ZM318.481 129.8L316.494 130.029L320.43 130.25L318.481 129.8ZM313.481 112L315.327 111.231L315.325 111.225L313.481 112ZM276.081 23L277.925 22.2252L277.921 22.2163L276.081 23ZM271.081 5.59999H273.081V3.59999H271.081V5.59999ZM240.281 5.59999V3.59999H238.281V5.59999H240.281ZM240.281 6.6H238.281V8.40248L240.074 8.58924L240.281 6.6ZM261.281 25L259.434 25.7672L259.439 25.7781L261.281 25ZM315.081 152.4L313.239 153.178L315.178 157.769L316.95 153.111L315.081 152.4ZM360.681 32.6L358.813 31.8866L358.812 31.8885L360.681 32.6ZM377.081 6.6L377.294 8.58862L379.081 8.39716V6.6H377.081ZM377.081 5.59999H379.081V3.59999H377.081V5.59999ZM347.68 7.4323C352.074 9.35487 354.878 12.2416 356.182 15.7472C357.495 19.2774 357.389 23.7116 355.413 28.8866L359.15 30.3134C361.374 24.4883 361.668 19.0226 359.931 14.3528C358.185 9.65839 354.488 6.04512 349.283 3.76767L347.68 7.4323ZM355.417 28.8746L325.217 106.475L328.945 107.925L359.145 30.3253L355.417 28.8746ZM325.22 106.468C322.819 112.57 320.998 116.848 319.576 120.378C318.17 123.867 317.17 126.589 316.532 129.35L320.43 130.25C320.993 127.811 321.892 125.333 323.286 121.872C324.664 118.452 326.543 114.03 328.942 107.932L325.22 106.468ZM320.468 129.571C319.839 124.121 317.369 116.131 315.327 111.231L311.635 112.769C313.593 117.469 315.923 125.079 316.494 130.029L320.468 129.571ZM315.325 111.225L277.925 22.2252L274.237 23.7748L311.637 112.775L315.325 111.225ZM277.921 22.2163C273.357 11.5001 273.081 8.79638 273.081 5.59999H269.081C269.081 9.6036 269.605 12.8999 274.241 23.7837L277.921 22.2163ZM271.081 3.59999H240.281V7.59999H271.081V3.59999ZM238.281 5.59999V6.6H242.281V5.59999H238.281ZM240.074 8.58924C244.595 9.06013 248.078 10.3051 251.066 12.8281C254.097 15.3881 256.794 19.4108 259.434 25.7672L263.128 24.2328C260.369 17.5892 257.365 12.9119 253.647 9.77193C249.884 6.59493 245.568 5.13986 240.488 4.61076L240.074 8.58924ZM259.439 25.7781L313.239 153.178L316.924 151.622L263.124 24.2219L259.439 25.7781ZM316.95 153.111L362.55 33.3115L358.812 31.8885L313.212 151.689L316.95 153.111ZM362.55 33.3134C366.768 22.2652 369.398 16.1216 371.616 12.6525C372.704 10.9514 373.609 10.0335 374.431 9.49645C375.227 8.97652 376.092 8.7174 377.294 8.58862L376.868 4.61138C375.27 4.7826 373.735 5.17347 372.244 6.14729C370.779 7.10395 369.509 8.52359 368.246 10.4975C365.765 14.3784 362.994 20.9348 358.813 31.8866L362.55 33.3134ZM379.081 6.6V5.59999H375.081V6.6H379.081ZM377.081 3.59999H348.481V7.59999H377.081V3.59999ZM490.705 117.4L491.599 115.611L489.816 114.72L488.919 116.499L490.705 117.4ZM428.705 144.8V142.8H428.675L428.646 142.801L428.705 144.8ZM420.105 66.6V64.6H418.105V66.6H420.105ZM479.305 77L477.718 78.2176L481.305 82.8911V77H479.305ZM479.305 53H481.305V48.2747L477.912 51.5642L479.305 53ZM420.105 63.4H418.105V65.4H420.105V63.4ZM420.105 9.19999V7.19999H418.105V9.19999H420.105ZM480.505 32.6L478.769 33.5941L479.655 35.1402L481.293 34.4383L480.505 32.6ZM481.905 32L482.693 33.8383L484.326 33.138L483.823 31.4333L481.905 32ZM474.105 5.59999L476.023 5.03329L475.599 3.59999H474.105V5.59999ZM389.305 5.59999V3.59999H387.305V5.59999H389.305ZM389.305 6.6H387.305V8.6H389.305V6.6ZM404.105 150L402.189 149.425L401.417 152H404.105V150ZM482.505 150V152H483.981L484.416 150.589L482.505 150ZM492.305 118.2L494.216 118.789L494.715 117.169L493.199 116.411L492.305 118.2ZM488.919 116.499C483.223 127.794 475.884 134.278 466.257 138.01C456.504 141.791 444.278 142.8 428.705 142.8V146.8C444.331 146.8 457.205 145.809 467.703 141.74C478.326 137.622 486.386 130.406 492.49 118.301L488.919 116.499ZM428.646 142.801C425.326 142.899 423.995 142.353 423.332 141.627C422.597 140.822 422.105 139.201 422.105 135.6H418.105C418.105 139.199 418.512 142.278 420.377 144.323C422.315 146.447 425.284 146.901 428.763 146.799L428.646 142.801ZM422.105 135.6V66.6H418.105V135.6H422.105ZM420.105 68.6H448.905V64.6H420.105V68.6ZM448.905 68.6C456.776 68.6 462.462 69.0556 466.949 70.4811C471.335 71.8745 474.651 74.2209 477.718 78.2176L480.891 75.7824C477.359 71.1791 473.375 68.3255 468.16 66.6689C463.047 65.0444 456.833 64.6 448.905 64.6V68.6ZM481.305 77V53H477.305V77H481.305ZM477.912 51.5642C474.768 54.6137 471.345 57.0427 466.852 58.7273C462.339 60.4201 456.641 61.4 448.905 61.4V65.4C456.969 65.4 463.171 64.3799 468.257 62.4727C473.365 60.5573 477.242 57.7863 480.697 54.4358L477.912 51.5642ZM448.905 61.4H420.105V65.4H448.905V61.4ZM422.105 63.4V9.19999H418.105V63.4H422.105ZM420.105 11.2H440.705V7.19999H420.105V11.2ZM440.705 11.2C451.51 11.2 458.022 11.9255 463.293 14.9147C468.561 17.9019 472.886 23.3234 478.769 33.5941L482.24 31.6059C476.323 21.2766 471.549 14.9981 465.266 11.4353C458.987 7.8745 451.499 7.19999 440.705 7.19999V11.2ZM481.293 34.4383L482.693 33.8383L481.117 30.1617L479.717 30.7617L481.293 34.4383ZM483.823 31.4333L476.023 5.03329L472.187 6.16668L479.987 32.5667L483.823 31.4333ZM474.105 3.59999H389.305V7.59999H474.105V3.59999ZM387.305 5.59999V6.6H391.305V5.59999H387.305ZM389.305 8.6C393.636 8.6 396.595 8.85678 398.672 9.50829C400.618 10.119 401.708 11.0467 402.445 12.5033C403.26 14.1119 403.717 16.5069 403.93 20.2148C404.141 23.8908 404.105 28.5599 404.105 34.6H408.105C408.105 28.6401 408.143 23.8092 407.923 19.9852C407.705 16.1931 407.225 13.0881 406.014 10.6967C404.726 8.15327 402.704 6.58098 399.869 5.6917C397.164 4.84322 393.674 4.6 389.305 4.6V8.6ZM404.105 34.6V136.8H408.105V34.6H404.105ZM404.105 136.8C404.105 141.374 403.343 145.579 402.189 149.425L406.02 150.575C407.267 146.421 408.105 141.826 408.105 136.8H404.105ZM404.105 152H482.505V148H404.105V152ZM484.416 150.589L494.216 118.789L490.393 117.611L480.593 149.411L484.416 150.589ZM493.199 116.411L491.599 115.611L489.81 119.189L491.41 119.989L493.199 116.411ZM603.075 118.2L604.999 118.745L605.45 117.152L603.969 116.411L603.075 118.2ZM601.475 117.4L602.369 115.611L600.653 114.753L599.725 116.433L601.475 117.4ZM530.875 146H528.875V148.017L530.892 148L530.875 146ZM530.875 5.59999H532.875V3.59999H530.875V5.59999ZM498.875 5.59999V3.59999H496.875V5.59999H498.875ZM498.875 6.6H496.875V8.6H498.875V6.6ZM514.075 150L512.237 149.212L511.042 152H514.075V150ZM594.075 150V152H595.588L595.999 150.545L594.075 150ZM603.969 116.411L602.369 115.611L600.581 119.189L602.181 119.989L603.969 116.411ZM599.725 116.433C593.501 127.694 588.179 134.269 578.746 138.258C569.109 142.333 554.99 143.8 530.858 144L530.892 148C554.96 147.8 569.841 146.367 580.304 141.942C590.971 137.431 596.849 129.906 603.225 118.367L599.725 116.433ZM532.875 146V5.59999H528.875V146H532.875ZM530.875 3.59999H498.875V7.59999H530.875V3.59999ZM496.875 5.59999V6.6H500.875V5.59999H496.875ZM498.875 8.6C503.199 8.6 506.249 8.85518 508.454 9.51585C510.555 10.1452 511.805 11.1148 512.671 12.605C513.606 14.2132 514.196 16.6006 514.517 20.2743C514.836 23.9217 514.875 28.5819 514.875 34.6H518.875C518.875 28.6181 518.839 23.7783 518.502 19.9257C518.167 16.0994 517.519 12.9868 516.129 10.5949C514.67 8.08521 512.508 6.55479 509.602 5.68415C506.801 4.84482 503.251 4.6 498.875 4.6V8.6ZM514.875 34.6V129H518.875V34.6H514.875ZM514.875 129C514.875 135.846 514.452 144.043 512.237 149.212L515.913 150.788C518.498 144.757 518.875 135.754 518.875 129H514.875ZM514.075 152H530.875V148H514.075V152ZM530.875 152H594.075V148H530.875V152ZM595.999 150.545L604.999 118.745L601.151 117.655L592.151 149.455L595.999 150.545ZM697.281 83.8L697.739 81.8532L695.281 81.2748V83.8H697.281ZM697.881 15.8H695.881V19.4262L698.948 17.4916L697.881 15.8ZM697.881 5.59999H699.881V3.59999H697.881V5.59999ZM665.281 5.59999V3.59999H663.281V5.59999H665.281ZM665.281 6.6H663.281V8.6H665.281V6.6ZM678.881 150L677.249 148.844L675.014 152H678.881V150ZM700.881 150V152H704.749L702.513 148.844L700.881 150ZM697.281 19.4L696.307 17.6533L695.281 18.2254V19.4H697.281ZM697.281 79.2H695.281V80.8168L696.862 81.1556L697.281 79.2ZM696.823 85.7468C703.765 87.3801 710.718 88.2 717.281 88.2V84.2C711.044 84.2 704.398 83.4199 697.739 81.8532L696.823 85.7468ZM717.281 88.2C732.416 88.2 746.625 84.1126 757.1 76.0607C767.629 67.9675 774.281 55.938 774.281 40.4H770.281C770.281 54.662 764.233 65.5325 754.662 72.8893C745.038 80.2874 731.747 84.2 717.281 84.2V88.2ZM774.281 40.4C774.281 20.4536 757.944 2.39999 733.281 2.39999V6.39999C755.819 6.39999 770.281 22.7464 770.281 40.4H774.281ZM733.281 2.39999C722.457 2.39999 710.091 5.73351 696.814 14.1084L698.948 17.4916C711.671 9.46649 723.306 6.39999 733.281 6.39999V2.39999ZM699.881 15.8V5.59999H695.881V15.8H699.881ZM697.881 3.59999H665.281V7.59999H697.881V3.59999ZM663.281 5.59999V6.6H667.281V5.59999H663.281ZM665.281 8.6C669.716 8.6 672.833 8.6945 675.11 9.17022C677.29 9.62577 678.44 10.377 679.21 11.5484C680.071 12.8582 680.644 14.9676 680.951 18.5819C681.255 22.1549 681.281 26.8747 681.281 33.2H685.281C685.281 26.9253 685.258 22.0201 684.937 18.243C684.619 14.5074 683.992 11.5418 682.553 9.35164C681.022 7.02296 678.773 5.84923 675.928 5.25478C673.179 4.68049 669.647 4.6 665.281 4.6V8.6ZM681.281 33.2V132.2H685.281V33.2H681.281ZM681.281 132.2C681.281 140.215 680.305 144.53 677.249 148.844L680.513 151.156C684.258 145.87 685.281 140.585 685.281 132.2H681.281ZM678.881 152H700.881V148H678.881V152ZM702.513 148.844C699.534 144.638 699.281 139.886 699.281 132.2H695.281C695.281 139.714 695.429 145.762 699.249 151.156L702.513 148.844ZM699.281 132.2V83.8H695.281V132.2H699.281ZM698.255 21.1467C708.427 15.4739 717.294 13.2 724.681 13.2V9.2C716.468 9.2 706.935 11.7261 696.307 17.6533L698.255 21.1467ZM724.681 13.2C743.502 13.2 754.081 28.4082 754.081 44.4H758.081C758.081 26.7917 746.26 9.2 724.681 9.2V13.2ZM754.081 44.4C754.081 55.5255 749.731 64.1502 742.585 70.0307C735.397 75.9464 725.231 79.2 713.481 79.2V83.2C725.932 83.2 737.065 79.7536 745.127 73.1193C753.232 66.4498 758.081 56.6745 758.081 44.4H754.081ZM713.481 79.2C708.478 79.2 703.231 78.4295 697.7 77.2444L696.862 81.1556C702.532 82.3705 708.085 83.2 713.481 83.2V79.2ZM699.281 79.2V19.4H695.281V79.2H699.281ZM843.338 85.2L843.147 83.2091L841.338 83.3825V85.2H843.338ZM820.537 15.8H818.537V19.4262L821.604 17.4916L820.537 15.8ZM820.537 5.59999H822.537V3.59999H820.537V5.59999ZM787.938 5.59999V3.59999H785.938V5.59999H787.938ZM787.938 6.6H785.938V8.6H787.938V6.6ZM801.537 150L799.905 148.844L797.67 152H801.537V150ZM823.537 150V152H827.405L825.17 148.844L823.537 150ZM819.938 83.8L820.307 81.8345L817.938 81.3884V83.8H819.938ZM873.138 124.4L871.421 125.426L871.421 125.427L873.138 124.4ZM929.938 179.4L929.36 181.315L931.303 181.901L931.861 179.949L929.938 179.4ZM930.338 178L932.261 178.549L932.77 176.765L931.029 176.123L930.338 178ZM843.338 86.2H841.338V87.9621L843.086 88.1841L843.338 86.2ZM819.938 19.4L818.963 17.6533L817.938 18.2254V19.4H819.938ZM819.938 79.2H817.938V80.6734L819.345 81.1101L819.938 79.2ZM843.528 87.1909C877.751 83.912 896.938 59.2227 896.938 40.4H892.938C892.938 56.7773 875.724 80.088 843.147 83.2091L843.528 87.1909ZM896.938 40.4C896.938 20.4536 880.6 2.39999 855.938 2.39999V6.39999C878.475 6.39999 892.938 22.7464 892.938 40.4H896.938ZM855.938 2.39999C845.113 2.39999 832.748 5.73351 819.471 14.1084L821.604 17.4916C834.327 9.46649 845.962 6.39999 855.938 6.39999V2.39999ZM822.537 15.8V5.59999H818.537V15.8H822.537ZM820.537 3.59999H787.938V7.59999H820.537V3.59999ZM785.938 5.59999V6.6H789.938V5.59999H785.938ZM787.938 8.6C792.372 8.6 795.489 8.6945 797.766 9.17022C799.946 9.62577 801.096 10.377 801.866 11.5484C802.727 12.8582 803.3 14.9676 803.607 18.5819C803.911 22.1549 803.938 26.8747 803.938 33.2H807.938C807.938 26.9253 807.914 22.0201 807.593 18.243C807.275 14.5074 806.648 11.5418 805.209 9.35164C803.679 7.02296 801.429 5.84923 798.584 5.25478C795.836 4.68049 792.303 4.6 787.938 4.6V8.6ZM803.938 33.2V132.2H807.938V33.2H803.938ZM803.938 132.2C803.938 140.215 802.961 144.53 799.905 148.844L803.17 151.156C806.914 145.87 807.938 140.585 807.938 132.2H803.938ZM801.537 152H823.537V148H801.537V152ZM825.17 148.844C822.19 144.638 821.938 139.886 821.938 132.2H817.938C817.938 139.714 818.085 145.762 821.905 151.156L825.17 148.844ZM821.938 132.2V83.8H817.938V132.2H821.938ZM819.568 85.7655C828.097 87.371 835.836 88.7716 844.047 93.9424C852.261 99.1155 861.114 108.182 871.421 125.426L874.854 123.374C864.361 105.818 855.114 96.1845 846.178 90.5576C837.239 84.9284 828.778 83.429 820.307 81.8345L819.568 85.7655ZM871.421 125.427C875.658 132.505 878.921 138.692 882.128 144.357C885.312 149.98 888.409 155.028 892.204 159.559C899.874 168.715 910.205 175.538 929.36 181.315L930.515 177.485C911.87 171.862 902.301 165.385 895.271 156.991C891.716 152.747 888.763 147.958 885.609 142.387C882.479 136.858 879.117 130.495 874.854 123.373L871.421 125.427ZM931.861 179.949L932.261 178.549L928.414 177.451L928.014 178.851L931.861 179.949ZM931.029 176.123C921.661 172.67 914.718 165.867 908.77 157.26C902.791 148.607 897.965 138.368 892.664 128.107C882.185 107.822 869.918 87.5593 843.589 84.2159L843.086 88.1841C867.157 91.2407 878.59 109.578 889.111 129.943C894.31 140.007 899.309 150.605 905.48 159.534C911.682 168.508 919.214 176.03 929.646 179.877L931.029 176.123ZM845.338 86.2V85.2H841.338V86.2H845.338ZM820.912 21.1467C831.084 15.4739 839.95 13.2 847.338 13.2V9.2C839.125 9.2 829.591 11.7261 818.963 17.6533L820.912 21.1467ZM847.338 13.2C866.158 13.2 876.737 28.4082 876.737 44.4H880.737C880.737 26.7917 868.917 9.2 847.338 9.2V13.2ZM876.737 44.4C876.737 66.3958 858.559 80 836.938 80V84C860.116 84 880.737 69.2042 880.737 44.4H876.737ZM836.938 80C831.58 80 826.182 79.0439 820.53 77.2899L819.345 81.1101C825.293 82.9561 831.095 84 836.938 84V80ZM821.938 79.2V19.4H817.938V79.2H821.938ZM907.953 78C907.953 103.61 917.103 123.019 931.461 136.008C945.788 148.969 965.142 155.4 985.353 155.4V151.4C965.964 151.4 947.619 145.231 934.145 133.042C920.703 120.881 911.953 102.59 911.953 78H907.953ZM985.353 155.4C1005.46 155.4 1024.67 149.019 1038.88 136.078C1053.11 123.11 1062.15 103.701 1062.15 78H1058.15C1058.15 102.699 1049.5 120.99 1036.18 133.122C1022.83 145.281 1004.64 151.4 985.353 151.4V155.4ZM1062.15 78C1062.15 52.2995 1053.11 32.8415 1038.85 19.823C1024.62 6.83205 1005.36 0.399994 985.153 0.399994V4.39999C1004.54 4.39999 1022.78 10.5679 1036.15 22.777C1049.5 34.9585 1058.15 53.3005 1058.15 78H1062.15ZM985.153 0.399994C946.842 0.399994 907.953 27.7111 907.953 78H911.953C911.953 30.2888 948.664 4.39999 985.153 4.39999V0.399994ZM983.953 9.6C1003.76 9.6 1018.53 18.6461 1028.42 32.0851C1038.34 45.5808 1043.35 63.5441 1043.35 81.2H1047.35C1047.35 62.8559 1042.16 44.0192 1031.64 29.7149C1021.08 15.3539 1005.15 5.6 983.953 5.6V9.6ZM1043.35 81.2C1043.35 97.9781 1038.88 114.421 1029.63 126.616C1020.44 138.746 1006.42 146.8 986.953 146.8V150.8C1007.68 150.8 1022.87 142.154 1032.82 129.034C1042.72 115.979 1047.35 98.6219 1047.35 81.2H1043.35ZM986.953 146.8C966.616 146.8 951.593 137.924 941.599 124.694C931.56 111.407 926.553 93.6543 926.553 76H922.553C922.553 94.3457 927.746 112.993 938.407 127.106C949.113 141.276 965.29 150.8 986.953 150.8V146.8ZM926.553 76C926.553 59.2208 931.023 42.5775 940.398 30.1815C949.722 17.8538 963.983 9.6 983.953 9.6V5.6C962.723 5.6 947.284 14.4462 937.208 27.7685C927.184 41.0225 922.553 58.5792 922.553 76H926.553ZM1195.97 5.59999L1197.97 5.53752L1197.91 3.59999H1195.97V5.59999ZM1085.97 5.59999V3.59999H1084.03L1083.97 5.53752L1085.97 5.59999ZM1080.77 36L1078.87 35.3764L1078.3 37.1168L1079.98 37.8383L1080.77 36ZM1082.17 36.6L1081.38 38.4383L1083.28 39.252L1084.03 37.3282L1082.17 36.6ZM1133.97 9.19999H1135.97V7.19999H1133.97V9.19999ZM1130.17 150L1128.42 149.029L1126.77 152H1130.17V150ZM1151.77 150V152H1155.17L1153.52 149.029L1151.77 150ZM1147.97 9.19999V7.19999H1145.97V9.19999H1147.97ZM1199.57 36.6L1197.68 37.2683L1198.39 39.2784L1200.35 38.4383L1199.57 36.6ZM1200.97 36L1201.76 37.8383L1203.39 37.1371L1202.88 35.4308L1200.97 36ZM1195.97 3.59999H1085.97V7.59999H1195.97V3.59999ZM1083.97 5.53752C1083.77 11.8389 1082.98 22.8284 1078.87 35.3764L1082.67 36.6235C1086.95 23.5716 1087.76 12.1611 1087.97 5.66246L1083.97 5.53752ZM1079.98 37.8383L1081.38 38.4383L1082.96 34.7617L1081.56 34.1617L1079.98 37.8383ZM1084.03 37.3282C1088.3 26.415 1092.31 20.0603 1097.95 16.3162C1103.6 12.5616 1111.24 11.2 1123.37 11.2V7.19999C1111.1 7.19999 1102.43 8.5384 1095.74 12.9838C1089.02 17.4397 1084.64 24.785 1080.3 35.8718L1084.03 37.3282ZM1123.37 11.2H1133.97V7.19999H1123.37V11.2ZM1131.97 9.19999V132.2H1135.97V9.19999H1131.97ZM1131.97 132.2C1131.97 136.663 1131.77 139.59 1131.24 142.026C1130.72 144.42 1129.86 146.431 1128.42 149.029L1131.92 150.971C1133.47 148.169 1134.52 145.78 1135.15 142.874C1135.77 140.01 1135.97 136.737 1135.97 132.2H1131.97ZM1130.17 152H1151.77V148H1130.17V152ZM1153.52 149.029C1152.07 146.431 1151.22 144.42 1150.7 142.026C1150.17 139.59 1149.97 136.663 1149.97 132.2H1145.97C1145.97 136.737 1146.17 140.01 1146.79 142.874C1147.42 145.78 1148.46 148.169 1150.02 150.971L1153.52 149.029ZM1149.97 132.2V9.19999H1145.97V132.2H1149.97ZM1147.97 11.2H1158.57V7.19999H1147.97V11.2ZM1158.57 11.2C1170.39 11.2 1178.19 12.5589 1183.98 16.3263C1189.73 20.0681 1193.83 26.4156 1197.68 37.2683L1201.45 35.9317C1197.5 24.7843 1193.01 17.4319 1186.16 12.9737C1179.35 8.54108 1170.55 7.19999 1158.57 7.19999V11.2ZM1200.35 38.4383L1201.76 37.8383L1200.18 34.1617L1198.78 34.7617L1200.35 38.4383ZM1202.88 35.4308C1199.15 22.8357 1198.16 11.8135 1197.97 5.53752L1193.97 5.66246C1194.17 12.1865 1195.19 23.5643 1199.05 36.5692L1202.88 35.4308ZM1207.37 78C1207.37 103.61 1216.52 123.019 1230.88 136.008C1245.2 148.969 1264.56 155.4 1284.77 155.4V151.4C1265.38 151.4 1247.03 145.231 1233.56 133.042C1220.12 120.881 1211.37 102.59 1211.37 78H1207.37ZM1284.77 155.4C1304.88 155.4 1324.09 149.019 1338.29 136.078C1352.52 123.11 1361.57 103.701 1361.57 78H1357.57C1357.57 102.699 1348.91 120.99 1335.6 133.122C1322.25 145.281 1304.06 151.4 1284.77 151.4V155.4ZM1361.57 78C1361.57 52.2995 1352.52 32.8415 1338.27 19.823C1324.04 6.83205 1304.78 0.399994 1284.57 0.399994V4.39999C1303.96 4.39999 1322.2 10.5679 1335.57 22.777C1348.91 34.9585 1357.57 53.3005 1357.57 78H1361.57ZM1284.57 0.399994C1246.26 0.399994 1207.37 27.7111 1207.37 78H1211.37C1211.37 30.2888 1248.08 4.39999 1284.57 4.39999V0.399994ZM1283.37 9.6C1303.17 9.6 1317.95 18.6461 1327.83 32.0851C1337.76 45.5808 1342.77 63.5441 1342.77 81.2H1346.77C1346.77 62.8559 1341.58 44.0192 1331.05 29.7149C1320.49 15.3539 1304.56 5.6 1283.37 5.6V9.6ZM1342.77 81.2C1342.77 97.9781 1338.3 114.421 1329.05 126.616C1319.85 138.746 1305.84 146.8 1286.37 146.8V150.8C1307.1 150.8 1322.28 142.154 1332.24 129.034C1342.14 115.979 1346.77 98.6219 1346.77 81.2H1342.77ZM1286.37 146.8C1266.03 146.8 1251.01 137.924 1241.01 124.694C1230.97 111.407 1225.97 93.6543 1225.97 76H1221.97C1221.97 94.3457 1227.16 112.993 1237.82 127.106C1248.53 141.276 1264.7 150.8 1286.37 150.8V146.8ZM1225.97 76C1225.97 59.2208 1230.44 42.5775 1239.81 30.1815C1249.14 17.8538 1263.4 9.6 1283.37 9.6V5.6C1262.14 5.6 1246.7 14.4462 1236.62 27.7685C1226.6 41.0225 1221.97 58.5792 1221.97 76H1225.97ZM1517.89 113.2L1519.81 113.738L1520.2 112.341L1519 111.536L1517.89 113.2ZM1516.69 112.4L1517.8 110.736L1515.89 109.463L1514.89 111.528L1516.69 112.4ZM1464.89 149.6L1464.77 147.604L1464.77 147.604L1464.89 149.6ZM1402.89 78.2L1400.89 78.2814L1400.89 78.285L1402.89 78.2ZM1511.29 40L1509.38 40.5868L1509.86 42.1707L1511.51 41.9878L1511.29 40ZM1513.09 39.8L1513.31 41.7878L1515.25 41.5723L1515.08 39.628L1513.09 39.8ZM1510.69 12L1512.68 11.828L1512.58 10.6409L1511.48 10.1658L1510.69 12ZM1387.69 83.4L1385.69 83.4855V83.4858L1387.69 83.4ZM1465.09 153.8L1465.18 155.798L1465.19 155.798L1465.09 153.8ZM1510.29 140.4L1511.39 142.068L1512.01 141.656L1512.21 140.938L1510.29 140.4ZM1519 111.536L1517.8 110.736L1515.58 114.064L1516.78 114.864L1519 111.536ZM1514.89 111.528C1502.61 136.872 1484.25 146.446 1464.77 147.604L1465.01 151.596C1485.92 150.354 1505.57 139.928 1518.49 113.272L1514.89 111.528ZM1464.77 147.604C1448.87 148.567 1434.46 142.706 1423.74 130.929C1413 119.126 1405.87 101.261 1404.89 78.115L1400.89 78.285C1401.9 102.139 1409.27 120.974 1420.78 133.621C1432.32 146.294 1447.9 152.633 1465.01 151.596L1464.77 147.604ZM1404.89 78.1186C1404 56.4649 1410.42 39.0508 1421.29 27.069C1432.17 15.0885 1447.61 8.39999 1465.09 8.39999V4.39999C1446.56 4.39999 1430.01 11.5115 1418.33 24.381C1406.65 37.2492 1399.97 55.7351 1400.89 78.2814L1404.89 78.1186ZM1465.09 8.39999C1477.01 8.39999 1486.57 11.6411 1493.87 17.215C1501.19 22.7948 1506.38 30.8144 1509.38 40.5868L1513.2 39.4132C1510 28.9856 1504.39 20.2052 1496.3 14.035C1488.21 7.85883 1477.76 4.39999 1465.09 4.39999V8.39999ZM1511.51 41.9878L1513.31 41.7878L1512.87 37.8122L1511.07 38.0122L1511.51 41.9878ZM1515.08 39.628L1512.68 11.828L1508.69 12.172L1511.09 39.972L1515.08 39.628ZM1511.48 10.1658C1497.49 4.08129 1485.42 0.999996 1470.49 0.999996V5C1484.76 5 1496.28 7.9187 1509.89 13.8341L1511.48 10.1658ZM1470.49 0.999996C1446.79 0.999996 1425.03 8.37458 1409.45 22.4404C1393.83 36.5397 1384.57 57.2288 1385.69 83.4855L1389.69 83.3145C1388.61 58.1712 1397.45 38.6603 1412.13 25.4096C1426.84 12.1254 1447.59 5 1470.49 5V0.999996ZM1385.69 83.4858C1386.71 107.269 1395.76 125.909 1410.08 138.335C1424.37 150.748 1443.75 156.818 1465.18 155.798L1464.99 151.802C1444.42 152.782 1426.1 146.952 1412.7 135.315C1399.31 123.691 1390.66 106.132 1389.69 83.3142L1385.69 83.4858ZM1465.19 155.798C1481.4 154.987 1496.79 151.733 1511.39 142.068L1509.18 138.732C1495.38 147.867 1480.77 151.013 1464.99 151.802L1465.19 155.798ZM1512.21 140.938L1519.81 113.738L1515.96 112.662L1508.36 139.862L1512.21 140.938ZM1534.52 78C1534.52 103.61 1543.67 123.019 1558.02 136.008C1572.35 148.969 1591.7 155.4 1611.92 155.4V151.4C1592.53 151.4 1574.18 145.231 1560.71 133.042C1547.27 120.881 1538.52 102.59 1538.52 78H1534.52ZM1611.92 155.4C1632.03 155.4 1651.23 149.019 1665.44 136.078C1679.67 123.11 1688.72 103.701 1688.72 78H1684.72C1684.72 102.699 1676.06 120.99 1662.74 133.122C1649.4 145.281 1631.21 151.4 1611.92 151.4V155.4ZM1688.72 78C1688.72 52.2995 1679.67 32.8415 1665.41 19.823C1651.19 6.83205 1631.93 0.399994 1611.72 0.399994V4.39999C1631.1 4.39999 1649.35 10.5679 1662.72 22.777C1676.06 34.9585 1684.72 53.3005 1684.72 78H1688.72ZM1611.72 0.399994C1573.4 0.399994 1534.52 27.7111 1534.52 78H1538.52C1538.52 30.2888 1575.23 4.39999 1611.72 4.39999V0.399994ZM1610.52 9.6C1630.32 9.6 1645.09 18.6461 1654.98 32.0851C1664.91 45.5808 1669.92 63.5441 1669.92 81.2H1673.92C1673.92 62.8559 1668.72 44.0192 1658.2 29.7149C1647.64 15.3539 1631.71 5.6 1610.52 5.6V9.6ZM1669.92 81.2C1669.92 97.9781 1665.45 114.421 1656.2 126.616C1647 138.746 1632.99 146.8 1613.52 146.8V150.8C1634.24 150.8 1649.43 142.154 1659.38 129.034C1669.28 115.979 1673.92 98.6219 1673.92 81.2H1669.92ZM1613.52 146.8C1593.18 146.8 1578.16 137.924 1568.16 124.694C1558.12 111.407 1553.12 93.6543 1553.12 76H1549.12C1549.12 94.3457 1554.31 112.993 1564.97 127.106C1575.68 141.276 1591.85 150.8 1613.52 150.8V146.8ZM1553.12 76C1553.12 59.2208 1557.59 42.5775 1566.96 30.1815C1576.28 17.8538 1590.55 9.6 1610.52 9.6V5.6C1589.29 5.6 1573.85 14.4462 1563.77 27.7685C1553.75 41.0225 1549.12 58.5792 1549.12 76H1553.12ZM1802.29 118.2L1804.22 118.745L1804.67 117.152L1803.19 116.411L1802.29 118.2ZM1800.69 117.4L1801.59 115.611L1799.87 114.753L1798.94 116.433L1800.69 117.4ZM1730.09 146H1728.09V148.017L1730.11 148L1730.09 146ZM1730.09 5.59999H1732.09V3.59999H1730.09V5.59999ZM1698.09 5.59999V3.59999H1696.09V5.59999H1698.09ZM1698.09 6.6H1696.09V8.6H1698.09V6.6ZM1713.29 150L1711.46 149.212L1710.26 152H1713.29V150ZM1793.29 150V152H1794.81L1795.22 150.545L1793.29 150ZM1803.19 116.411L1801.59 115.611L1799.8 119.189L1801.4 119.989L1803.19 116.411ZM1798.94 116.433C1792.72 127.694 1787.4 134.269 1777.96 138.258C1768.33 142.333 1754.21 143.8 1730.08 144L1730.11 148C1754.18 147.8 1769.06 146.367 1779.52 141.942C1790.19 137.431 1796.07 129.906 1802.44 118.367L1798.94 116.433ZM1732.09 146V5.59999H1728.09V146H1732.09ZM1730.09 3.59999H1698.09V7.59999H1730.09V3.59999ZM1696.09 5.59999V6.6H1700.09V5.59999H1696.09ZM1698.09 8.6C1702.42 8.6 1705.47 8.85518 1707.67 9.51585C1709.77 10.1452 1711.02 11.1148 1711.89 12.605C1712.82 14.2132 1713.41 16.6006 1713.74 20.2743C1714.05 23.9217 1714.09 28.5819 1714.09 34.6H1718.09C1718.09 28.6181 1718.06 23.7783 1717.72 19.9257C1717.39 16.0994 1716.74 12.9868 1715.35 10.5949C1713.89 8.08521 1711.73 6.55479 1708.82 5.68415C1706.02 4.84482 1702.47 4.6 1698.09 4.6V8.6ZM1714.09 34.6V129H1718.09V34.6H1714.09ZM1714.09 129C1714.09 135.846 1713.67 144.043 1711.46 149.212L1715.13 150.788C1717.72 144.757 1718.09 135.754 1718.09 129H1714.09ZM1713.29 152H1730.09V148H1713.29V152ZM1730.09 152H1793.29V148H1730.09V152ZM1795.22 150.545L1804.22 118.745L1800.37 117.655L1791.37 149.455L1795.22 150.545Z" fill="black"/>
</svg>
