<svg viewBox="0 0 12 12" fill="none" xmlns="http://www.w3.org/2000/svg">
<path fill-rule="evenodd" clip-rule="evenodd" d="M6.5 7L5.5 7L5.5 6.5L5 6.5L5 6L4.5 6L4.5 5.5L4 5.5L4 5L3.5 5L3.5 4.5L8.5 4.5L8.5 5L8 5L8 5.5L7.5 5.5L7.5 6L7 6L7 6.5L6.5 6.5L6.5 7Z" fill="var(--icon-fill, #302F2C)"/>
<rect opacity="0.8" width="1" height="0.5" transform="matrix(1 -1.74846e-07 -1.74846e-07 -1 5.5 7.5)" fill="var(--icon-fill, #302F2C)"/>
<rect opacity="0.8" width="0.5" height="0.5" transform="matrix(1 -1.74846e-07 -1.74846e-07 -1 5 7)" fill="var(--icon-fill, #302F2C)"/>
<rect opacity="0.8" width="0.5" height="0.5" transform="matrix(1 -1.74846e-07 -1.74846e-07 -1 6.5 7)" fill="var(--icon-fill, #302F2C)"/>
<rect opacity="0.8" width="0.5" height="0.5" transform="matrix(1 -1.74846e-07 -1.74846e-07 -1 7 6.5)" fill="var(--icon-fill, #302F2C)"/>
<rect opacity="0.8" width="0.5" height="0.5" transform="matrix(1 -1.74846e-07 -1.74846e-07 -1 4.5 6.5)" fill="var(--icon-fill, #302F2C)"/>
<rect opacity="0.8" width="0.5" height="0.5" transform="matrix(1 -1.74846e-07 -1.74846e-07 -1 4 6)" fill="var(--icon-fill, #302F2C)"/>
<rect opacity="0.8" width="0.5" height="0.5" transform="matrix(1 -1.74846e-07 -1.74846e-07 -1 7.5 6)" fill="var(--icon-fill, #302F2C)"/>
<rect opacity="0.8" width="0.5" height="0.5" transform="matrix(1 -1.74846e-07 -1.74846e-07 -1 8 5.5)" fill="var(--icon-fill, #302F2C)"/>
<rect opacity="0.8" width="0.5" height="0.5" transform="matrix(1 -1.74846e-07 -1.74846e-07 -1 3.5 5.5)" fill="var(--icon-fill, #302F2C)"/>
<rect opacity="0.8" width="0.5" height="0.5" transform="matrix(1 -1.74846e-07 -1.74846e-07 -1 3 5)" fill="var(--icon-fill, #302F2C)"/>
<rect opacity="0.8" width="0.5" height="0.5" transform="matrix(1 -1.74846e-07 -1.74846e-07 -1 8.5 5)" fill="var(--icon-fill, #302F2C)"/>
<rect opacity="0.7" width="0.5" height="1" transform="matrix(1 -1.74846e-07 -1.74846e-07 -1 9 5)" fill="var(--icon-fill, #302F2C)"/>
<rect opacity="0.7" width="0.5" height="1" transform="matrix(1 -1.74846e-07 -1.74846e-07 -1 2.5 5)" fill="var(--icon-fill, #302F2C)"/>
<rect opacity="0.7" width="6" height="0.5" transform="matrix(1 -1.74846e-07 -1.74846e-07 -1 3 4.5)" fill="var(--icon-fill, #302F2C)"/>
<rect opacity="0.7" width="0.5" height="0.5" transform="matrix(1 -1.74846e-07 -1.74846e-07 -1 3 5.5)" fill="var(--icon-fill, #302F2C)"/>
<rect opacity="0.4" width="6" height="0.5" transform="matrix(1 -1.74846e-07 -1.74846e-07 -1 3 4)" fill="var(--icon-fill, #302F2C)"/>
<rect opacity="0.2" width="0.5" height="0.5" transform="matrix(1 -1.74846e-07 -1.74846e-07 -1 5 8)" fill="var(--icon-fill, #302F2C)"/>
<rect opacity="0.2" width="0.5" height="0.5" transform="matrix(1 -1.74846e-07 -1.74846e-07 -1 6.5 8)" fill="var(--icon-fill, #302F2C)"/>
<rect opacity="0.2" width="0.5" height="0.5" transform="matrix(1 -1.74846e-07 -1.74846e-07 -1 7 7.5)" fill="var(--icon-fill, #302F2C)"/>
<rect opacity="0.2" width="0.5" height="0.5" transform="matrix(1 -1.74846e-07 -1.74846e-07 -1 4.5 7.5)" fill="var(--icon-fill, #302F2C)"/>
<rect opacity="0.2" width="0.5" height="0.5" transform="matrix(1 -1.74846e-07 -1.74846e-07 -1 4 7)" fill="var(--icon-fill, #302F2C)"/>
<rect opacity="0.2" width="0.5" height="0.5" transform="matrix(1 -1.74846e-07 -1.74846e-07 -1 7.5 7)" fill="var(--icon-fill, #302F2C)"/>
<rect opacity="0.2" width="0.5" height="0.5" transform="matrix(1 -1.74846e-07 -1.74846e-07 -1 8 6.5)" fill="var(--icon-fill, #302F2C)"/>
<rect opacity="0.2" width="0.5" height="0.5" transform="matrix(1 -1.74846e-07 -1.74846e-07 -1 3.5 6.5)" fill="var(--icon-fill, #302F2C)"/>
<rect opacity="0.2" width="0.5" height="0.5" transform="matrix(1 -1.74846e-07 -1.74846e-07 -1 3 6)" fill="var(--icon-fill, #302F2C)"/>
<rect opacity="0.2" width="0.5" height="0.5" transform="matrix(1 -1.74846e-07 -1.74846e-07 -1 8.5 6)" fill="var(--icon-fill, #302F2C)"/>
<rect opacity="0.2" width="0.5" height="0.5" transform="matrix(1 -1.74846e-07 -1.74846e-07 -1 9 5.5)" fill="var(--icon-fill, #302F2C)"/>
<rect opacity="0.2" width="0.5" height="0.5" transform="matrix(1 -1.74846e-07 -1.74846e-07 -1 9 4)" fill="var(--icon-fill, #302F2C)"/>
<rect opacity="0.05" width="0.5" height="0.5" transform="matrix(1 -1.74846e-07 -1.74846e-07 -1 9.5 4)" fill="var(--icon-fill, #302F2C)"/>
<rect opacity="0.05" width="0.5" height="0.5" transform="matrix(1 -1.74846e-07 -1.74846e-07 -1 2 4)" fill="var(--icon-fill, #302F2C)"/>
<rect opacity="0.05" width="0.5" height="0.5" transform="matrix(1 -1.74846e-07 -1.74846e-07 -1 9.5 5.5)" fill="var(--icon-fill, #302F2C)"/>
<rect opacity="0.05" width="0.5" height="0.5" transform="matrix(1 -1.74846e-07 -1.74846e-07 -1 2 5.5)" fill="var(--icon-fill, #302F2C)"/>
<rect opacity="0.05" width="0.5" height="0.5" transform="matrix(1 -1.74846e-07 -1.74846e-07 -1 3 6.5)" fill="var(--icon-fill, #302F2C)"/>
<rect opacity="0.05" width="0.5" height="0.5" transform="matrix(1 -1.74846e-07 -1.74846e-07 -1 4 7.5)" fill="var(--icon-fill, #302F2C)"/>
<rect opacity="0.05" width="0.5" height="0.5" transform="matrix(1 -1.74846e-07 -1.74846e-07 -1 7.5 7.5)" fill="var(--icon-fill, #302F2C)"/>
<rect opacity="0.05" width="0.5" height="0.5" transform="matrix(1 -1.74846e-07 -1.74846e-07 -1 8.5 6.5)" fill="var(--icon-fill, #302F2C)"/>
<rect opacity="0.2" width="0.5" height="0.5" transform="matrix(1 -1.74846e-07 -1.74846e-07 -1 2.5 5.5)" fill="var(--icon-fill, #302F2C)"/>
<rect opacity="0.2" width="0.5" height="0.5" transform="matrix(1 -1.74846e-07 -1.74846e-07 -1 2.5 4)" fill="var(--icon-fill, #302F2C)"/>
<rect opacity="0.2" width="0.5" height="1" transform="matrix(1 -1.74846e-07 -1.74846e-07 -1 2 5)" fill="var(--icon-fill, #302F2C)"/>
<rect opacity="0.2" width="0.5" height="1" transform="matrix(1 -1.74846e-07 -1.74846e-07 -1 9.5 5)" fill="var(--icon-fill, #302F2C)"/>
<rect opacity="0.7" width="0.5" height="0.5" transform="matrix(1 -1.74846e-07 -1.74846e-07 -1 3.5 6)" fill="var(--icon-fill, #302F2C)"/>
<rect opacity="0.7" width="0.5" height="0.5" transform="matrix(1 -1.74846e-07 -1.74846e-07 -1 4 6.5)" fill="var(--icon-fill, #302F2C)"/>
<rect opacity="0.7" width="0.5" height="0.5" transform="matrix(1 -1.74846e-07 -1.74846e-07 -1 4.5 7)" fill="var(--icon-fill, #302F2C)"/>
<rect opacity="0.7" width="0.5" height="0.5" transform="matrix(1 -1.74846e-07 -1.74846e-07 -1 5 7.5)" fill="var(--icon-fill, #302F2C)"/>
<rect opacity="0.7" width="0.5" height="0.5" transform="matrix(1 -1.74846e-07 -1.74846e-07 -1 6.5 7.5)" fill="var(--icon-fill, #302F2C)"/>
<rect opacity="0.7" width="0.5" height="0.5" transform="matrix(1 -1.74846e-07 -1.74846e-07 -1 7 7)" fill="var(--icon-fill, #302F2C)"/>
<rect opacity="0.7" width="0.5" height="0.5" transform="matrix(1 -1.74846e-07 -1.74846e-07 -1 7.5 6.5)" fill="var(--icon-fill, #302F2C)"/>
<rect opacity="0.7" width="0.5" height="0.5" transform="matrix(1 -1.74846e-07 -1.74846e-07 -1 8 6)" fill="var(--icon-fill, #302F2C)"/>
<rect opacity="0.7" width="0.5" height="0.5" transform="matrix(1 -1.74846e-07 -1.74846e-07 -1 8.5 5.5)" fill="var(--icon-fill, #302F2C)"/>
<rect opacity="0.7" width="1" height="0.5" transform="matrix(1 -1.74846e-07 -1.74846e-07 -1 5.5 8)" fill="var(--icon-fill, #302F2C)"/>
<rect opacity="0.2" width="1" height="0.5" transform="matrix(1 -1.74846e-07 -1.74846e-07 -1 5.5 8.5)" fill="var(--icon-fill, #302F2C)"/>
<rect opacity="0.05" width="0.5" height="0.5" transform="matrix(1 -1.74846e-07 -1.74846e-07 -1 5 8.5)" fill="var(--icon-fill, #302F2C)"/>
<rect opacity="0.05" width="0.5" height="0.5" transform="matrix(1 -1.74846e-07 -1.74846e-07 -1 6.5 8.5)" fill="var(--icon-fill, #302F2C)"/>
</svg>
