<svg viewBox="0 0 24 24" xmlns="http://www.w3.org/2000/svg"><g fill="none" fill-rule="evenodd" transform="translate(0 3)"><path d="m5.93825883 1.6484011h.2003129c.58024133 0 1.05060954.4703792 1.05060954 1.05060954v10.24017296h.56967829v-5.84318158c0-.27563909.17547165-.51029009.4207956-.59834467-.04171353-.1132146-.06449935-.2355853-.06449935-.36328698v-.2003129c-.21100784-.10336603-.35629625-.32025444-.35629625-.57106325v-.85119795c0-.35098726.28453138-.63552963.63552963-.63552963h.85223117c.25081981 0 .46769722.1452994.57106325.35630724h.20031289c.5802413 0 1.0505876.47036821 1.0505876 1.05060954v.16815116c.0156082.02340135.0297875.04789088.0422081.07333668h.2003789c.5802523 0 1.0505875.4703792 1.0505875 1.05060954v1.17728898h.5697003v-.65656776c0-.35099824.2844654-.63552962.6355406-.63552962h.8521872c.2508308 0 .4676973.14528841.5710193.35629625h.2003789c.5802523 0 1.0505875.47037919 1.0505875 1.05062052v.16814017c.0156082.02340135.0297876.04789088.0422082.07334768h.2003788c.1142039 0 .224121.01822425.3271133.05192483v-2.31981118c-.1029923.03370058-.2129094.05192483-.3271133.05192483h-.8522971c-.5802523 0-1.0505875-.4703682-1.0505875-1.05060953v-.20031291c-.2110408-.10337702-.3563512-.32025443-.3563512-.57106325v-.85119795c0-.35098725.2845753-.63552962.6355406-.63552962h.6576339v-.65656776c0-.35099824.2845754-.63552962.6355406-.63552962h.657634v-.65657216c0-.35099604.2844654-.6355327.6355406-.6355327h.8521872c.2508308 0 .4676972.14529259.5711292.35630262h.200269c.5802523 0 1.0505875.4703748 1.0505875 1.05061064v.16815116c.0156082.02340135.0297875.04789088.0422082.07333668h.2003788c.5802523 0 1.0505876.4703792 1.0505876 1.05060954v10.24017296h.7642535c.2508308 0 .4676972.1453103.5711292.3562412h.2002689c.5802524 0 1.0505876.4704452 1.0505876 1.0506975v.851198c0 .5802523-.4703352 1.0505875-1.0505876 1.0505875h-.2424771v.2414879c0 .5802523-.4704451 1.0505875-1.0506974 1.0505875h-2.1453618c-.5802523 0-1.0505875-.4703352-1.0505875-1.0505875v-.2003789c-.0248413-.0120909-.0488032-.0259404-.0717759-.041109h-.1707012c-.5802524 0-1.0506975-.4703352-1.0506975-1.0505875v-.2003789c-.2109309-.1033221-.3562413-.3201885-.3562413-.5710193v-.8141559c-.1029923.0337446-.2129094.0518809-.3271133.0518809h-.242587v.2414878c0 .5802524-.4703352 1.0506975-1.0505875 1.0506975h-.242587v.2414879c0 .5802523-.4703353 1.0505875-1.0505876 1.0505875h-.2424771v.2414879c0 .5802523-.4704451 1.0505875-1.0506975 1.0505875h-.8521872c-.5802523 0-1.0506095-.4703352-1.0506095-1.0505875v-.2003789c-.0248852-.0120909-.0488472-.0259404-.0717649-.041109h-.1707672c-.3600004 0-.67770477-.1810334-.86702597-.4571452-.1893102.2761118-.50702555.4571452-.86702601.4571452h-.24252107v.2414879c0 .5802523-.47037919 1.0505875-1.05062052 1.0505875h-2.14537276c-.58024133 0-1.05060954-.4703352-1.05060954-1.0505875v-.2003789c-.02488523-.0120909-.04884715-.0259404-.07177586-.041109h-.1707562c-.58023034 0-1.05060953-.4703352-1.05060953-1.0505875v-.2003789c-.21100784-.1033221-.35630724-.3201885-.35630724-.5710193v-8.58493143c-.10294835.03370058-.21290941.05192483-.32713525.05192483h-.85223117c-.58024022 0-1.05061283-.4703682-1.05061283-1.05060953v-.20031291c-.21101113-.10337702-.35630295-.32025443-.35630295-.57106325v-.85119795c0-.35098725.28453699-.63552962.63553303-.63552962h.65760757v-.65656776c0-.35099824.28454238-.63552962.63552963-.63552962h.65761197v-.65657216c0-.35099604.28454237-.6355327.63554061-.6355327h.85223117c.25080882 0 .46768623.14529259.57106325.35630262h.20031291c.58024133 0 1.05060953.4703748 1.05060953 1.05061064v.16815116c.01563021.02340135.02975456.04789088.04221916.07333668zm7.34944137 9.4540679v.2002689c0 .1337691.0250611.2617126.0705668.3794338-.1812533.0628726-.3251348.2056549-.389766.3860288-.1134345-.0418784-.2362119-.0648511-.3642653-.0648511h-.2002689c-.0124206-.0253908-.0265999-.0499023-.0422082-.0733147v-1.1213961c.1836715.1575332.4224114.2526115.6834645.2526115h.1707012c.0229727.0152784.0469346.0290181.0717759.0412189z" fill="#212125"/><g fill="#eb4130" fill-rule="nonzero"><path d="m6.88068796 14.6464158v-1.0716916c0-.1217882.09870555-.2204937.22046071-.2204937h1.07268089v1.0716916c0 .1217882-.09869456.2204937-.22044972.2204937zm-6.24525385-10.35502528c-.12175406 0-.22045412-.09870555-.22045412-.22044972v-.85119795c0-.12175516.09870115-.22044971.22045412-.22044971h1.07268748v1.07164766c0 .12174417-.09869456.22044972-.22044972.22044972zm3.87943137 11.64710068c-.12175516 0-.22046071-.0987055-.22046071-.2204937v-.8511979c0-.1217882-.09869455-.2203838-.22044971-.2203838h-.85223117c-.12175516 0-.22046071-.0987055-.22046071-.2204937v-11.20617925c0-.12175516-.09869455-.22044971-.22044972-.22044971h-1.07269187v-1.07164767c0-.12175516.09870554-.22046071.22044971-.22046071h.85224216c.12175517 0 .22044972-.09869455.22044972-.22044971v-.85119355c0-.12175407.09870555-.22045412.22046071-.22045412h.85223117c.12175516 0 .22044971.09870005.22044971.22045412v.85119355c0 .12175516.09870555.22044971.22046071.22044971h.85223117c.12175516 0 .22044972.09870555.22044972.22046071v12.49827663c0 .1217882.09870555.2204937.22046071.2204937h1.07268088v1.0715817c0 .1217882-.09869455.2204937-.22044971.2204937z"/><path d="m13.3463959 13.3542305v-1.0715817c0-.1217882.0987056-.2204937.2204937-.2204937h1.0726809v1.0716916c0 .1216782-.0987055.2203838-.2204937.2203838zm-2.3658554 2.5842607c-.1217222 0-.2204168-.0987055-.2204168-.2204937v-.8511979c0-.1217882-.0987055-.2203838-.2204607-.2203838h-.85223114c-.12175516 0-.22046071-.0987055-.22046071-.2204937v-.8511979c0-.1217882-.09869456-.2204937-.22044972-.2204937h-1.07269187v-6.25821749c0-.12175516.09870554-.2204607.2204607-.2204607h.85223117c.12175516 0 .22044972-.09869456.22044972-.22044972v-1.07164767h1.07269185c.1217552 0 .2204607.09870555.2204607.22046071v6.03774577c0 .1217881.0986946.2204937.2204168.2204937h.8522971c.1216782 0 .2203838.0987055.2203838.2204937v.8511979c0 .1216782.0987055.2203838.2204936.2203838h1.0726809v1.0716916c0 .1217882-.0987055.2204937-.2204937.2204937h-.8521872c-.1217881 0-.2204936.0985956-.2204936.2203838v.8511979c0 .1217882-.0987056.2204937-.2203838.2204937zm3.65903-3.8763361v-1.089828c0-.1217661-.0987055-.2204607-.2204937-.2204607h-.8521872c-.1217881 0-.2204937-.0987055-.2204937-.2204607v-.85118693c0-.12175516-.0987055-.22046071-.2204937-.22046071h-.8521872c-.1217881 0-.2204936-.09869456-.2204936-.22044972v-.85119795c0-.12175516.0987055-.22044971.2204936-.22044971h.8521872c.1217882 0 .2204937-.09870555.2204937-.22046071v-.85118696c0-.12175516.0987056-.2204607.2204937-.2204607h.8521872c.1217882 0 .2204937.09870554.2204937.2204607v.85118696c0 .12175516.0987055.22046071.2203838.22046071h.8522971c.1217881 0 .2203837.09869455.2203837.22044971v3.45355101c0 .1217881-.0985956.2204937-.2203837.2204937zm-6.24528024-6.47870018c-.12175516 0-.2204607-.09869455-.2204607-.22044971v-.85119795c0-.12175516.09870554-.22044972.2204607-.22044972h.85223117c.12175516 0 .22044972.09869456.22044972.22044972v1.07164766z"/><path d="m21.1052235 14.6464158v-1.0716916c0-.1217882.0987056-.2204937.2204937-.2204937h.8521872c.1217881 0 .2204937.0987055.2204937.2204937v.8511979c0 .1217882-.0987056.2204937-.2204937.2204937zm-6.2452692-10.35502528c-.1216783 0-.2203838-.09870555-.2203838-.22044972v-.85119795c0-.12175516.0987055-.22044971.2203838-.22044971h1.0726808v1.07164766c0 .12174417-.0985956.22044972-.2203837.22044972zm3.8795237 11.64710068c-.1217882 0-.2204937-.0987055-.2204937-.2204937v-.8511979c0-.1217882-.0987056-.2203838-.2204937-.2203838h-.8521872c-.1217881 0-.2204937-.0987055-.2204937-.2204937v-11.20617925c0-.12175516-.0987055-.22044971-.2203837-.22044971h-1.0727909v-1.07164767c0-.12175516.0987056-.22046071.2204937-.22046071h.8522972c.1216782 0 .2203837-.09869455.2203837-.22044971v-.85119355c0-.12175407.0987056-.22045412.2204937-.22045412h.8521872c.1217881 0 .2204937.09870005.2204937.22045412v.85119355c0 .12175516.0987055.22044971.2204937.22044971h.8521872c.1217881 0 .2204937.09870555.2204937.22046071v12.49827663c0 .1217882.0987055.2204937.2203837.2204937h1.0726809v1.0715817c0 .1217882-.0987055.2204937-.2203838.2204937z"/></g></g></svg>