<svg height="96" viewBox="0 0 96 96" width="96" xmlns="http://www.w3.org/2000/svg"><g fill="none" fill-rule="evenodd"><g fill-rule="nonzero"><path d="m0 0h96.1555v96.1555h-96.1555z" fill="#3872f5"/><path d="m5.4719 118.76012c1.08906-11.688 2.8766-19.273 4.176-23.5498.8261-2.7176 2.5837-5.0491 4.9871-6.5404 13.0686-8.13 23.7715-14.0421 27.9174-15.3214.721-.2195 1.5096-.0151 2.0429.5299 10.0869 10.3556 19.3851 3.0204 22.3293.1362.6084-.598 1.5247-.7569 2.2908-.3785l3.4925 1.6957s22.1942 10.7644 23.118 12.1421 6.0086 3.9363 10.4026 35.8582l-18.9573 2.097s-.8187-8.206-1.9378-12.528c0 0 2.103 45.548 3.9431 65.298 0 0-22.0364 4.648-41.6845 2.604l-26.1523-.47 4.927-59.711-1.2843-7.138-5.3626 13.807h-15.14168z" fill="#000" stroke="#000" stroke-linecap="round" stroke-linejoin="round" stroke-width="1.83153"/><path d="m64.1034 75.01812v-5.379-12.8618l-21.7569 12.8618-.2215 5.2249s9.9331 14.8346 21.9784.1541z" fill="#fff" stroke="#000" stroke-linecap="round" stroke-linejoin="round" stroke-width="1.83153"/><path d="m23.9719 33.86102v12.6207c0 10.4892 6.6647 19.9012 16.6312 23.1328.45.1451.9075.2903 1.3803.4202 2.219.6417 4.5753.6264 6.8096.0229 4.438-1.2071 11.7357-3.9497 14.2978-9.3433l1.5251-3.6517s1.853 1.8564 3.4391.7945 8.6093-14.2021 3.1799-16.853c0 0-2.7834-.7946-3.8433 2.2536v-11.1174c0-6.6095-3.247-12.9265-9.4146-15.3024-5.3362-2.0557-12.382-3.7859-19.6333-2.7602-14.9612 2.1161-14.3718 19.7833-14.3718 19.7833z" fill="#fff" stroke="#000" stroke-linecap="round" stroke-linejoin="round" stroke-width="1.83153"/><path d="m30.6753 45.24122c-1.0097 0-1.8316-.8219-1.8316-1.8316s.8219-1.8315 1.8316-1.8315 1.8315.8218 1.8315 1.8315-.814 1.8316-1.8315 1.8316z" fill="#000"/><path d="m44.8706 46.70412c-1.0097 0-1.8315-.8219-1.8315-1.8316s.8218-1.8315 1.8315-1.8315 1.8315.8218 1.8315 1.8315-.814 1.8316-1.8315 1.8316z" fill="#000"/><path d="m62.8425 21.57842c-10 8.8-1.1666 18 4.5 21.5l2.9993-2.5003c1-10.5-1.5-17.9997-2.9993-18.9997-1.1994-.8-3.4997-.3333-4.5 0z" fill="#000"/><path d="m59.843 25.57882c-17.6 5.6-28.3333-1.6667-31.5-6-1.6-2.8003 4.3333-6.5001 7.5-8 16-6.40002 27.6667 4 31.5 10z" fill="#000"/><circle cx="63.1875" cy="20.07812" fill="#000" r="7.5"/><circle cx="68.1875" cy="30.07812" fill="#000" r="7.5"/><circle cx="53.1875" cy="14.07812" fill="#000" r="7.5"/><circle cx="41.1875" cy="13.07812" fill="#000" r="7.5"/><circle cx="30.1875" cy="18.07812" fill="#000" r="7.5"/><circle cx="27.6875" cy="24.57812" fill="#000" r="6"/><circle cx="40.1875" cy="26.07812" fill="#000" r="7.5"/><circle cx="52.1875" cy="26.07812" fill="#000" r="7.5"/><circle cx="61.1875" cy="26.07812" fill="#000" r="7.5"/><circle cx="61.1875" cy="34.07812" fill="#000" r="7.5"/></g><path d="m43.6484 39.89622s5.7895-.914 10.0735.6504" stroke="#000" stroke-linecap="round" stroke-linejoin="round" stroke-width="1.83153"/><path d="m34.4875 39.71432s-5.2547-2.9204-10.0734-1.3857" stroke="#000" stroke-linecap="round" stroke-linejoin="round" stroke-width="1.83153"/></g></svg>