<svg height="96" viewBox="0 0 96 96" width="96" xmlns="http://www.w3.org/2000/svg"><g fill="none" fill-rule="evenodd"><g fill-rule="nonzero"><path d="m0 0h96.1555v96.1555h-96.1555z" fill="#eb4130"/><path d="m5.4719 118.76012c1.08906-11.688 2.87665-19.273 4.17595-23.5498.8262-2.7176 2.5837-5.0491 4.9871-6.5404 13.0687-8.13 23.7715-14.0421 27.9174-15.3214.721-.2195 1.5097-.0151 2.0429.5299 10.0869 10.3556 19.3852 3.0204 22.3294.1362.6083-.598 1.5247-.7569 2.2908-.3785l3.4924 1.6957s22.1942 10.7644 23.1181 12.1421c.9238 1.3777 6.0088 3.9363 10.4018 35.8582l-18.9566 2.097s-.8186-8.206-1.9377-12.528c0 0 2.103 45.548 3.9431 65.298 0 0-22.0365 4.648-41.6845 2.604l-26.1523-.47 4.927-59.711-1.2843-7.138-5.3627 13.807h-15.14162z" fill="#000" stroke="#000" stroke-linecap="round" stroke-linejoin="round" stroke-width="1.83153"/><path d="m64.10345 75.01812v-5.379-12.8618l-21.7569 12.8618-.2216 5.2249s9.9332 14.8346 21.9785.1541z" fill="#fff" stroke="#000" stroke-linecap="round" stroke-linejoin="round" stroke-width="1.83153"/><path d="m23.97185 33.86102v12.6207c0 10.4892 6.6647 19.9012 16.6313 23.1328.4499.1451.9074.2903 1.3802.4202 2.219.6417 4.5754.6264 6.8096.0229 4.4381-1.2071 11.7357-3.9497 14.2979-9.3433l1.5251-3.6517s1.853 1.8564 3.4391.7945 8.6092-14.2021 3.1798-16.853c0 0-2.7833-.7946-3.8433 2.2536v-11.1174c0-6.6095-3.2469-12.9265-9.4146-15.3024-5.3361-2.0557-12.3819-3.7859-19.6332-2.7602-14.9613 2.1161-14.3719 19.7833-14.3719 19.7833z" fill="#fff" stroke="#000" stroke-linecap="round" stroke-linejoin="round" stroke-width="1.83153"/><path d="m30.67525 45.24122c-1.0097 0-1.8315-.8219-1.8315-1.8316s.8218-1.8315 1.8315-1.8315 1.8316.8218 1.8316 1.8315-.8141 1.8316-1.8316 1.8316z" fill="#000"/><path d="m44.87055 46.70412c-1.0097 0-1.8315-.8219-1.8315-1.8316s.8218-1.8315 1.8315-1.8315 1.8316.8218 1.8316 1.8315-.8141 1.8316-1.8316 1.8316z" fill="#000"/></g><path d="m32.84375 35.5781294s-3.1298-1.5945094-6-.7566094" stroke="#000" stroke-linecap="round" stroke-linejoin="round" stroke-width="1.83153"/><path d="m42.84445 36.54102s3.4451-.6852 5.9801.9003" stroke="#000" stroke-linecap="round" stroke-linejoin="round" stroke-width="1.83153"/><path d="m62.84255 21.57842c-10 8.8-1.1667 18 4.5 21.5l2.9992-2.5003c1-10.5-1.5-17.9997-2.9992-18.9997-1.1994-.8-3.4998-.3333-4.5 0z" fill="#000" fill-rule="nonzero"/><path d="m59.84305 25.57882c-17.6 5.6-28.3334-1.6667-31.5-6-1.6-2.8003 4.3333-6.5001 7.5-8 16-6.40002 27.6666 4 31.4999 10z" fill="#000" fill-rule="nonzero"/></g></svg>