<svg height="121" viewBox="0 0 121 121" width="121" xmlns="http://www.w3.org/2000/svg"><g fill="none" fill-rule="evenodd"><g fill-rule="nonzero"><path d="m0 0h121v121h-121z" fill="#76f651"/><path d="m57.84645 15.2c3.8118-1.5058 10.96-3.6214 18.1368-.9244 5.0951 1.9155 10.4278 6.3374 16.7301 22.1571 4.116 10.3209 9.2584 26.9983 9.8474 49.4984l-8.9063.3145-1.5495-5.3558-.4467 5.4321-59.1445 2.1156-3.0608-5.0985.3612 5.251-5.4563.1429c-1.9391-6.9568-4.2965-18.2593-3.4315-32.154.7509-12.0649 2.1863-35.2321 16.3023-41.2264 2.4905-1.0579 9.3251-5.3654 20.6178-.1525z" fill="#000"/><path d="m6.88643 149.446c1.37042-14.708 3.61982-24.253 5.25492-29.635 1.0397-3.42 3.2513-6.354 6.2757-8.23 16.4453-10.231 29.9135-17.6705 35.1306-19.2803.9074-.2763 1.8997-.0191 2.5708.6667 12.6931 13.0316 24.3938 3.8008 28.0987.1715.7656-.7525 1.9187-.9526 2.8827-.4763l4.3949 2.1338s27.929 13.5456 29.091 15.2796c1.163 1.733 7.561 4.953 13.09 45.123l-23.855 2.639s-1.03-10.326-2.438-15.765c0 0 2.646 57.316 4.962 82.169 0 0-27.7306 5.849-52.4553 3.277l-32.9095-.591 6.2001-75.139-1.6162-8.983-6.7482 17.375h-19.05393z" fill="#000" stroke="#000" stroke-linecap="round" stroke-linejoin="round" stroke-width="2.30476"/><path d="m80.66495 94.401v-6.7687-16.185l-27.3783 16.185-.2788 6.5748s12.4996 18.6679 27.6571.1939z" fill="#fff" stroke="#000" stroke-linecap="round" stroke-linejoin="round" stroke-width="2.30476"/><path d="m30.16465 42.612v15.8816c0 13.1994 8.3867 25.0433 20.9284 29.1099.5661.1826 1.1419.3653 1.7368.5287 2.7924.8076 5.7575.7883 8.5691.0289 5.5847-1.519 14.7679-4.9703 17.9921-11.7574l1.9192-4.5953s2.3317 2.3361 4.3276.9998 10.8337-17.8716 4.0015-21.2075c0 0-3.5025-.9998-4.8363 2.836l-.499-8.3446s-19.6713-17.3621-38.4983-14.6991c-18.8269 2.6629-15.6411 11.219-15.6411 11.219z" fill="#fff" stroke="#000" stroke-linecap="round" stroke-linejoin="round" stroke-width="2.30476"/></g><path d="m34.57055 63.3814c4.4551 0 8.0667-3.6116 8.0667-8.0667s-3.6116-8.0667-8.0667-8.0667-8.0666 3.6116-8.0666 8.0667 3.6115 8.0667 8.0666 8.0667z" stroke="#000" stroke-linecap="round" stroke-linejoin="round" stroke-width="2.30476"/><path d="m57.61745 67.9908c4.4551 0 8.0667-3.6116 8.0667-8.0667s-3.6116-8.0667-8.0667-8.0667-8.0667 3.6116-8.0667 8.0667 3.6116 8.0667 8.0667 8.0667z" stroke="#000" stroke-linecap="round" stroke-linejoin="round" stroke-width="2.30476"/><path d="m38.02735 55.3146c-1.2705 0-2.3047-1.0342-2.3047-2.3048 0-1.2705 1.0342-2.3047 2.3047-2.3047 1.2706 0 2.3048 1.0342 2.3048 2.3047 0 1.2706-1.0243 2.3048-2.3048 2.3048z" fill="#000" fill-rule="nonzero"/><path d="m56.46485 58.7716c-1.2705 0-2.3047-1.0342-2.3047-2.3047 0-1.2706 1.0342-2.3048 2.3047-2.3048 1.2706 0 2.3048 1.0342 2.3048 2.3048 0 1.2705-1.0243 2.3047-2.3048 2.3047z" fill="#000" fill-rule="nonzero"/><path d="m55.31255 46.4297s7.2852-1.1502 12.6761.8184" stroke="#000" stroke-linecap="round" stroke-linejoin="round" stroke-width="2.30476"/><path d="m43.78945 44.9415s-6.6124-3.6751-12.6762-1.7438" stroke="#000" stroke-linecap="round" stroke-linejoin="round" stroke-width="2.30476"/><path d="m65.68755 59.9241 18.438-6.9143" stroke="#000" stroke-linecap="round" stroke-linejoin="round" stroke-width="2.30476"/><path d="m43.78905 55.7326s2.7486-1.3216 5.7619.7342z" fill="#fff" fill-rule="nonzero"/><path d="m43.78905 55.7326s2.7486-1.3216 5.7619.7342" stroke="#000" stroke-linecap="round" stroke-linejoin="round" stroke-width="2.30476"/></g></svg>