<svg height="96" viewBox="0 0 96 96" width="96" xmlns="http://www.w3.org/2000/svg"><g fill="none" fill-rule="evenodd"><g fill-rule="nonzero"><path d="m0 0h96v96h-96z" fill="#eb4130"/><path d="m60.383 11.34552c-5.7032-2.1432-11.3837-.462-14.4128.7346-8.9741-4.1425-14.4054-.7194-16.3845.1212-11.2122 4.7612-12.3571 23.1562-12.9541 32.7478l-.0009.0138c-.6874 11.0417 1.186 38.0235 2.727 43.5519l4.336-.1136-.2871-4.1728 2.4323 4.0516 47.0006-1.6812.355-4.3167 1.2313 4.2561 7.078-.2499c-.4683-17.8803-4.555-49.1334-7.8258-57.3351-5.0083-12.5715-9.2461-16.0855-13.295-17.6077z" fill="#000"/><path d="m5.4719 118.76012c1.08906-11.688 2.8766-19.273 4.176-23.5499.8261-2.7176 2.5837-5.0491 4.9871-6.5403 13.0686-8.1301 23.7715-14.0421 27.9174-15.3214.721-.2196 1.5096-.0152 2.0429.5298 10.0869 10.3556 19.3851 3.0204 22.3293.1363.6084-.598 1.5247-.757 2.2908-.3785l3.4925 1.6957s22.1942 10.7643 23.118 12.142 6.0081 3.9364 10.4021 35.8583l-18.9568 2.097s-.8187-8.206-1.9378-12.528c0 0 2.103 45.548 3.9431 65.298 0 0-22.0364 4.648-41.6845 2.604l-26.1523-.47 4.927-59.711-1.2843-7.138-5.3626 13.807h-15.14168z" fill="#fff" stroke="#000" stroke-linecap="round" stroke-linejoin="round" stroke-width="1.83153"/><path d="m64.1034 75.01812v-5.379-12.8618l-21.7569 12.8618-.2215 5.2249s9.9331 14.8346 21.9784.1541z" fill="#fff" stroke="#000" stroke-linecap="round" stroke-linejoin="round" stroke-width="1.83153"/><path d="m23.9705 33.86272v12.6207c0 10.4892 6.6647 19.9013 16.6312 23.1328.4499.1452.9074.2904 1.3802.4202 2.219.6418 4.5754.6265 6.8097.023 4.438-1.2071 11.7356-3.9497 14.2978-9.3433l1.5251-3.6518s1.853 1.8565 3.4391.7946c1.5861-1.062 8.6092-14.2021 3.1798-16.8531 0 0-2.7833-.7945-3.8432 2.2537l-.3965-6.6312s-15.6323-13.7972-30.5936-11.681c-14.9613 2.1161-12.4296 8.9154-12.4296 8.9154z" fill="#fff" stroke="#000" stroke-linecap="round" stroke-linejoin="round" stroke-width="1.83153"/><path d="m31.8315 46.24122c-1.0097 0-1.8315-.8219-1.8315-1.8316s.8218-1.8315 1.8315-1.8315 1.8316.8218 1.8316 1.8315-.8141 1.8316-1.8316 1.8316z" fill="#000"/><path d="m44.8745 46.70412c-1.0097 0-1.8315-.8219-1.8315-1.8316s.8218-1.8315 1.8315-1.8315 1.8315.8218 1.8315 1.8315-.814 1.8316-1.8315 1.8316z" fill="#000"/></g><path d="m43.957 36.89622s5.7895-.914 10.0735.6504" stroke="#000" stroke-linecap="round" stroke-linejoin="round" stroke-width="1.83153"/><path d="m34.8 36.71432s-5.2547-2.9204-10.0734-1.3857" stroke="#000" stroke-linecap="round" stroke-linejoin="round" stroke-width="1.83153"/><path d="m48 33.07812 18 3.5v-9.5l-37-5-5 9.5 22 1.5 2-5z" fill="#000" fill-rule="nonzero"/></g></svg>