<svg height="34" viewBox="0 0 841 34" width="841" xmlns="http://www.w3.org/2000/svg"><g fill="none" fill-rule="evenodd"><g fill-rule="nonzero"><path d="m.5.5h840v33h-840z" fill="#efecd3"/><path d="m14.838 18.338h-2.338v4.662h-2.324v-10.5h5.824v1.162h-3.5v3.5h2.338zm5.8241 4.662h-2.324v-8.162h2.324zm0-9.338h-2.324v-1.162h2.324zm4.6621 9.338h-2.324v-10.5h2.324zm4.6621-3.5v2.324h2.17c.168 0 .3314-.028.49-.084.1587-.0653.2987-.1493.42-.252.1214-.1027.2194-.224.294-.364.0747-.14.112-.294.112-.462h1.148c0 .308-.07.602-.21.882s-.3266.532-.56.756c-.224.2147-.4806.3873-.77.518-.2893.1213-.5833.182-.882.182h-2.17c-.3266 0-.6346-.07-.924-.21-.28-.14-.5273-.322-.742-.546-.2146-.2333-.3873-.4947-.518-.784-.1213-.2893-.182-.5787-.182-.868v-3.36c0-.2987.0607-.5927.182-.882.1307-.2893.3034-.546.518-.77.224-.224.476-.4013.756-.532.2894-.14.5927-.21.91-.21h2.17c.336 0 .6534.07.952.21.2987.1307.5554.308.77.532.2147.224.3827.4807.504.77.1307.2893.196.5833.196.882v2.268zm2.296-1.162v-2.352h-2.296v2.352z" fill="#302f2c"/><path d="m44 1h1v32h-1z" fill="#302f2c"/><path d="m58.838 18.338h-2.338v3.486h3.5v1.176h-5.824v-10.5h5.824v1.162h-3.5v3.486h2.338zm10.4861-5.838v10.5h-4.578c-.2987 0-.5927-.0653-.882-.196-.2893-.14-.546-.3173-.77-.532-.224-.224-.406-.476-.546-.756-.14-.2893-.21-.5833-.21-.882v-3.416c0-.308.07-.602.21-.882.14-.2893.322-.5413.546-.756.224-.224.4807-.4013.77-.532.2893-.14.5833-.21.882-.21h2.254v-2.338zm-2.324 3.5h-2.338v5.824h2.338zm6.9999 7h-2.324v-8.162h2.324zm0-9.338h-2.324v-1.162h2.324zm3.4581-1.162h2.324v2.338h1.162v1.162h-1.162v5.824h1.162v1.176h-2.198c-.168 0-.3313-.0327-.49-.098-.1587-.0747-.2987-.1727-.42-.294-.112-.1213-.2053-.2567-.28-.406-.0653-.1587-.098-.322-.098-.49v-5.712h-1.12v-1.162h1.12z" fill="#302f2c"/><path d="m91 1h1v32h-1z" fill="#302f2c"/><path d="m103.5 12.5v9.324h1.176l1.162-1.162v-8.162h2.324v7.574l-2.954 2.926h-4.032v-10.5zm9.338 10.5h-2.324v-8.162h2.324zm0-9.338h-2.324v-1.162h2.324zm4.662 5.838v2.324h2.17c.168 0 .331-.028.49-.084.159-.0653.299-.1493.42-.252s.219-.224.294-.364.112-.294.112-.462h1.148c0 .308-.07.602-.21.882s-.327.532-.56.756c-.224.2147-.481.3873-.77.518-.289.1213-.583.182-.882.182h-2.17c-.327 0-.635-.07-.924-.21-.28-.14-.527-.322-.742-.546-.215-.2333-.387-.4947-.518-.784-.121-.2893-.182-.5787-.182-.868v-3.36c0-.2987.061-.5927.182-.882.131-.2893.303-.546.518-.77.224-.224.476-.4013.756-.532.289-.14.593-.21.91-.21h2.17c.336 0 .653.07.952.21.299.1307.555.308.77.532s.383.4807.504.77c.131.2893.196.5833.196.882v2.268zm2.296-1.162v-2.352h-2.296v2.352zm9.353-3.5h2.324v6.986h1.12l1.218-1.19v-5.796h2.324v5.082l-3.066 3.08h-8.582v-8.162h2.324v6.986h2.338z" fill="#302f2c"/><path d="m146 1h1v32h-1z" fill="#302f2c"/><path d="m159.662 23h-2.324v-10.5h2.324zm8.176-7h-2.338v7h-2.324v-8.162h9.282c.317 0 .621.07.91.21.289.1307.541.308.756.532.215.2147.383.4667.504.756.131.28.196.574.196.882v5.782h-2.324v-7h-2.338v7h-2.324zm11.774 0c-.485 0-.826.0747-1.022.224-.187.1493-.28.3733-.28.672h-1.134c0-.5973.196-1.0873.588-1.47.392-.392.999-.588 1.82-.588h2.156c.373 0 .709.07 1.008.21.299.1307.551.308.756.532.215.224.378.4807.49.77s.168.5833.168.882v5.768h-4.634c-.317 0-.621-.056-.91-.168-.28-.112-.527-.2707-.742-.476-.215-.2147-.387-.4713-.518-.77-.121-.2987-.182-.63-.182-.994v-1.246c0-.308.065-.5927.196-.854.14-.2613.317-.49.532-.686.224-.196.476-.35.756-.462s.569-.168.868-.168h2.31v-1.176zm2.226 2.338h-2.338v3.486h2.338zm9.338-2.352h-2.338v5.446h2.338zm0 8.652v-2.03h-2.254c-.383 0-.723-.0653-1.022-.196-.289-.1307-.541-.3033-.756-.518-.205-.2147-.364-.4667-.476-.756-.103-.2893-.154-.588-.154-.896v-3.038c0-.308.061-.602.182-.882.121-.2893.285-.546.49-.77.215-.224.467-.4013.756-.532.299-.14.625-.21.98-.21h4.578v8.582c0 .392-.061.7373-.182 1.036-.121.308-.294.56-.518.756-.215.2053-.471.3593-.77.462-.289.112-.607.168-.952.168h-2.156c-.336 0-.653-.0607-.952-.182-.289-.112-.541-.2707-.756-.476-.215-.196-.387-.4387-.518-.728-.121-.28-.182-.588-.182-.924h1.134c0 .1587.037.3033.112.434.075.14.173.2613.294.364s.261.182.42.238c.159.0653.317.098.476.098zm7-5.138v2.324h2.17c.168 0 .331-.028.49-.084.158-.0653.298-.1493.42-.252.121-.1027.219-.224.294-.364.074-.14.112-.294.112-.462h1.148c0 .308-.07.602-.21.882s-.327.532-.56.756c-.224.2147-.481.3873-.77.518-.29.1213-.584.182-.882.182h-2.17c-.327 0-.635-.07-.924-.21-.28-.14-.528-.322-.742-.546-.215-.2333-.388-.4947-.518-.784-.122-.2893-.182-.5787-.182-.868v-3.36c0-.2987.06-.5927.182-.882.13-.2893.303-.546.518-.77.224-.224.476-.4013.756-.532.289-.14.592-.21.91-.21h2.17c.336 0 .653.07.952.21.298.1307.555.308.77.532.214.224.382.4807.504.77.13.2893.196.5833.196.882v2.268zm2.296-1.162v-2.352h-2.296v2.352z" fill="#302f2c"/><path d="m212 1h1v32h-1z" fill="#302f2c"/><path d="m224.556 23c-.317 0-.621-.0607-.91-.182-.28-.1307-.532-.3033-.756-.518-.215-.224-.387-.476-.518-.756-.131-.2893-.196-.5927-.196-.91v-5.768c0-.2987.061-.588.182-.868.131-.2893.303-.5413.518-.756.215-.224.467-.4013.756-.532.289-.14.597-.21.924-.21h2.226c.327 0 .635.07.924.21.289.1307.541.308.756.532.215.2147.383.4667.504.756.131.28.196.5693.196.868v5.768c0 .3173-.065.6207-.196.91-.131.28-.308.532-.532.756-.215.2147-.467.3873-.756.518-.28.1213-.579.182-.896.182zm2.282-1.176v-8.162h-2.338v8.162zm4.676 3.514v-10.5h4.592c.336 0 .649.07.938.21.299.1307.555.308.77.532s.383.4807.504.77c.121.28.182.574.182.882v3.36c0 .2893-.056.5787-.168.868s-.275.5507-.49.784c-.205.224-.457.406-.756.546-.289.14-.616.21-.98.21h-2.268v2.338zm2.324-3.514h2.338v-5.824h-2.338zm8.134-9.324h2.324v2.338h1.162v1.162h-1.162v5.824h1.162v1.176h-2.198c-.168 0-.332-.0327-.49-.098-.159-.0747-.299-.1727-.42-.294-.112-.1213-.206-.2567-.28-.406-.066-.1587-.098-.322-.098-.49v-5.712h-1.12v-1.162h1.12zm8.163 10.5h-2.324v-8.162h2.324zm0-9.338h-2.324v-1.162h2.324zm4.718 9.338c-.355 0-.677-.0607-.966-.182-.289-.1307-.541-.3033-.756-.518-.205-.2147-.369-.4667-.49-.756-.112-.2987-.168-.616-.168-.952v-3.36c0-.3173.061-.6207.182-.91s.289-.5413.504-.756c.215-.224.467-.4013.756-.532s.602-.196.938-.196h2.212c.355 0 .677.0653.966.196.299.1307.551.308.756.532.215.2147.378.4667.49.756.121.2893.182.5927.182.91v3.36c0 .336-.061.6533-.182.952-.112.2893-.275.5413-.49.756-.205.2147-.457.3873-.756.518-.289.1213-.611.182-.966.182zm2.282-1.176v-5.824h-2.338v5.824zm9.24-6.986c.336 0 .648.07.938.21.298.1307.555.308.77.532.224.224.396.4807.518.77.13.2893.196.5833.196.882v5.768h-2.324v-7h-2.338v7h-2.324v-8.162zm4.774 2.884v-.812c0-.3173.06-.602.182-.854.13-.2613.303-.4807.518-.658.224-.1867.48-.3267.77-.42.298-.0933.616-.14.952-.14h.98c.326 0 .634.0653.924.196.289.1213.541.2893.756.504.224.2053.396.448.518.728.13.28.196.5787.196.896h-1.148c0-.3547-.108-.6347-.322-.84-.215-.2147-.5-.322-.854-.322h-1.148v.784l3.472 2.968v.882c0 .3173-.061.6207-.182.91-.112.28-.276.532-.49.756-.206.2147-.458.3873-.756.518-.29.1213-.612.182-.966.182h-.98c-.336 0-.654-.0607-.952-.182-.29-.1213-.546-.2893-.77-.504-.215-.2147-.388-.462-.518-.742-.122-.28-.182-.5833-.182-.91h1.176c0 .3547.112.6393.336.854.233.2147.536.322.91.322h1.064v-.938z" fill="#302f2c"/><path d="m287 1h1v32h-1z" fill="#302f2c"/><path d="m301.838 12.5h2.324v10.5h-2.324v-4.662h-2.338v4.662h-2.324v-10.5h2.324v4.648h2.338zm7 7v2.324h2.17c.168 0 .331-.028.49-.084.159-.0653.299-.1493.42-.252s.219-.224.294-.364.112-.294.112-.462h1.148c0 .308-.07.602-.21.882s-.327.532-.56.756c-.224.2147-.481.3873-.77.518-.289.1213-.583.182-.882.182h-2.17c-.327 0-.635-.07-.924-.21-.28-.14-.527-.322-.742-.546-.215-.2333-.387-.4947-.518-.784-.121-.2893-.182-.5787-.182-.868v-3.36c0-.2987.061-.5927.182-.882.131-.2893.303-.546.518-.77.224-.224.476-.4013.756-.532.289-.14.593-.21.91-.21h2.17c.336 0 .653.07.952.21.299.1307.555.308.77.532s.383.4807.504.77c.131.2893.196.5833.196.882v2.268zm2.296-1.162v-2.352h-2.296v2.352zm7.014 4.662h-2.324v-10.5h2.324zm2.339 2.338v-10.5h4.592c.336 0 .648.07.938.21.298.1307.555.308.77.532.214.224.382.4807.504.77.121.28.182.574.182.882v3.36c0 .2893-.056.5787-.168.868s-.276.5507-.49.784c-.206.224-.458.406-.756.546-.29.14-.616.21-.98.21h-2.268v2.338zm2.324-3.514h2.338v-5.824h-2.338z" fill="#302f2c"/><path d="m337 1h1v32h-1z" fill="#302f2c"/></g><path d="m.5.5h840v33h-840z" stroke="#302f2c"/></g></svg>