<svg fill="none" viewBox="0 0 64 93" xmlns="http://www.w3.org/2000/svg"><g fill="var(--fill)"><path d="m0 36h4v4h-4z"/><path d="m4 32h4v4h-4z"/><path d="m8 28h4v4h-4z"/><path d="m12 24h4v4h-4z"/><path d="m16 20h4v4h-4z"/><path d="m20 16h4v4h-4z"/><path d="m24 12h4v4h-4z"/><path d="m24 32h4v4h-4z"/><path d="m28 28h4v4h-4z"/><path d="m28 24h4v4h-4z"/><path d="m28 20h4v4h-4z"/><path d="m28 16h4v4h-4z"/><path d="m28 12h4v4h-4z"/><path d="m28 8h4v4h-4z"/><path d="m28 36h4v4h-4z"/><path d="m32 32h4v4h-4z"/><path d="m28 8h4v4h-4z"/><path d="m28 4h4v4h-4z"/><path d="m24 0h4v4h-4z"/><path d="m20 0h4v4h-4z"/><path d="m16 4h4v4h-4z"/><path d="m12 8h4v4h-4z"/><path d="m12 12h4v4h-4z"/><path d="m12 16h4v4h-4z"/><path d="m12 20h4v4h-4z"/><path d="m32 8h4v4h-4z"/><path d="m36 12h4v4h-4z"/><path d="m40 16h4v4h-4z"/><path d="m44 20h4v4h-4z"/><path d="m44 16h4v4h-4z"/><path d="m48 24h4v4h-4z"/><path d="m52 24h4v4h-4z"/><path d="m56 24h4v4h-4z"/><path d="m48 20h4v4h-4z"/><path d="m52 20h4v4h-4z"/><path d="m52 28h4v4h-4z"/><path d="m56 28h4v4h-4z"/><path d="m56 32h4v4h-4z"/><path d="m56 36h4v4h-4z"/><path d="m56 40h4v4h-4z"/><path d="m56 44h4v4h-4z"/><path d="m56 48h4v4h-4z"/><path d="m60 28h4v4h-4z"/><path d="m60 32h4v4h-4z"/><path d="m60 36h4v4h-4z"/><path d="m60 40h4v4h-4z"/><path d="m52 32h4v4h-4z"/><path d="m52 36h4v4h-4z"/><path d="m52 40h4v4h-4z"/><path d="m52 44h4v4h-4z"/><path d="m52 48h4v4h-4z"/><path d="m52 52h4v4h-4z"/><path d="m52 56h4v4h-4z"/><path d="m52 60h4v4h-4z"/><path d="m56 60h4v4h-4z"/><path d="m60 60h4v4h-4z"/><path d="m48 60h4v4h-4z"/><path d="m48 36h4v4h-4z"/><path d="m44 40h4v4h-4z"/><path d="m40 44h4v4h-4z"/><path d="m36 48h4v4h-4z"/><path d="m32 52h4v4h-4z"/><path d="m28 56h4v4h-4z"/><path d="m4 40h4v4h-4z"/><path d="m8 44h4v4h-4z"/><path d="m12 48h4v4h-4z"/><path d="m16 52h4v4h-4z"/><path d="m20 56h4v4h-4z"/><path d="m24 60h4v4h-4z"/><path d="m11.5 85.5h1.5v1.5h-1.5-1.5-1.5-1.5v-1.5h-1.5v-1.5h-1.5v-1.5-1.5-1.5-1.5h1.5v-1.5h1.5v1.5 1.5 1.5 1.5h1.5v1.5h1.5v1.5zm1.5 0v-1.5h1.5v1.5zm0-6h-1.5v-1.5h-1.5v-1.5h-1.5-1.5v-1.5h1.5 1.5 1.5v1.5h1.5v-1.5h1.5v1.5 1.5 1.5zm9 7.5h-1.5-1.5v-1.5h-1.5v-1.5h-1.5v-1.5-1.5-1.5-1.5h1.5v-1.5h1.5v1.5 1.5 1.5 1.5h1.5v1.5h1.5v1.5h1.5v1.5zm1.5-1.5v-1.5-1.5-1.5-1.5h-1.5v-1.5h-1.5v-1.5h-1.5v-1.5h1.5 1.5 1.5v1.5h1.5v1.5h1.5v1.5 1.5 1.5 1.5h-1.5v1.5zm7.5 1.5h-1.5v-1.5-1.5-1.5-1.5-1.5-1.5-1.5-1.5h-1.5v-1.5h1.5v-1.5h1.5v-1.5h1.5v1.5 1.5 1.5 1.5 1.5 1.5 1.5 1.5 1.5h1.5v1.5h-1.5v1.5zm10.5 0h-1.5-1.5v-1.5h-1.5v-1.5h-1.5v-1.5-1.5-1.5-1.5h1.5v-1.5h1.5v1.5 1.5 1.5 1.5h1.5v1.5h1.5v1.5h1.5v1.5zm1.5-1.5v-1.5-1.5-1.5-1.5h-1.5v-1.5h-1.5v-1.5h-1.5v-1.5h1.5 1.5 1.5v1.5h1.5v1.5h1.5v1.5 1.5 1.5 1.5h-1.5v1.5zm7.5 1.5h-1.5v-1.5-1.5-1.5-1.5-1.5h-1.5v-1.5h1.5v-1.5h1.5v-1.5h1.5v1.5 1.5h1.5v1.5h-1.5v1.5 1.5 1.5h1.5v1.5h-1.5v1.5zm6-7.5h-1.5v-1.5h-1.5v-1.5h1.5v-1.5h1.5v1.5h1.5v1.5 1.5z"/></g></svg>