<svg fill="none" viewBox="0 0 64 93" xmlns="http://www.w3.org/2000/svg" preserveAspectRatio="xMidYMin slice"><g fill="var(--fill)"><path d="m30 6h4v4h-4z" transform="matrix(0 -1 1 0 24 36)"/><path d="m26 14h8v4h-8z" transform="matrix(0 -1 1 0 12 40)"/><path d="m22 22h8v4h-8z" transform="matrix(0 -1 1 0 0 44)"/><path d="m25 39h8v4h-8z" transform="matrix(0 -1 1 0 -14 64)"/><path d="m36 39h8v4h-8z" transform="matrix(0 -1 1 0 -3 75)"/><path d="m2 30h4v4h-4z" transform="matrix(0 -1 1 0 -28 32)"/><path d="m6 34h4v4h-4z" transform="matrix(0 -1 1 0 -28 40)"/><path d="m10 38h4v4h-4z" transform="matrix(0 -1 1 0 -28 48)"/><path d="m54 34h4v4h-4z" transform="matrix(0 -1 1 0 20 88)"/><path d="m50 38h4v4h-4z" transform="matrix(0 -1 1 0 12 88)"/><path d="m50 62h4v4h-4z" transform="matrix(0 -1 1 0 -12 112)"/><path d="m46 62h4v4h-4z" transform="matrix(0 -1 1 0 -16 108)"/><path d="m38 58h4v8h-4z" transform="matrix(0 -1 1 0 -20 96)"/><path d="m14 62h4v4h-4z" transform="matrix(0 -1 1 0 -48 76)"/><path d="m10 62h4v4h-4z" transform="matrix(0 -1 1 0 -52 72)"/><path d="m18 58h4v8h-4z" transform="matrix(0 -1 1 0 -40 76)"/><path d="m26 54h4v12h-4z" transform="matrix(0 -1 1 0 -28 80)"/><path d="m14 46h8v4h-8z" transform="matrix(0 -1 1 0 -32 60)"/><path d="m10 54h8v4h-8z" transform="matrix(0 -1 1 0 -44 64)"/><path d="m6 62h8v4h-8z" transform="matrix(0 -1 1 0 -56 68)"/><path d="m54 62h8v4h-8z" transform="matrix(0 -1 1 0 -8 116)"/><path d="m50 54h8v4h-8z" transform="matrix(0 -1 1 0 -4 104)"/><path d="m46 46h8v4h-8z" transform="matrix(0 -1 1 0 0 92)"/><path d="m58 30h4v4h-4z" transform="matrix(0 -1 1 0 28 88)"/><path d="m2 26h4v20h-4z" transform="matrix(0 -1 1 0 -24 28)"/><path d="m34 14h8v4h-8z" transform="matrix(0 -1 1 0 20 48)"/><path d="m38 22h8v4h-8z" transform="matrix(0 -1 1 0 16 60)"/><path d="m42 26h4v20h-4z" transform="matrix(0 -1 1 0 16 68)"/><path d="m14.5 90h1.5v1.5h-1.5-1.5-1.5-1.5v-1.5h-1.5v-1.5-1.5h1.5 1.5v1.5h1.5v1.5zm1.5 0v-1.5-1.5-1.5h-1.5v-1.5h1.5v-1.5-1.5-1.5h-1.5v-1.5h-1.5v-1.5h-1.5v1.5 1.5 1.5 1.5 1.5h1.5v1.5h1.5v1.5h-1.5-1.5v-1.5h-1.5v-1.5h-1.5v-1.5-1.5-1.5-1.5h1.5v-1.5h1.5v-1.5h1.5 1.5v1.5h1.5v-1.5h1.5 1.5v1.5h1.5v1.5h-1.5v1.5 1.5 1.5 1.5 1.5 1.5 1.5h-1.5v1.5zm7.5-15v-1.5-1.5h1.5v-1.5h1.5v1.5 1.5h-1.5v1.5zm1.5 12h-1.5v-1.5-1.5-1.5-1.5h-1.5v-1.5h1.5v-1.5h1.5v-1.5h1.5v1.5 1.5 1.5 1.5 1.5h1.5v1.5h-1.5v1.5zm10.5 0h-1.5v-1.5h-1.5v-1.5h-1.5v-1.5-1.5-1.5h-1.5v-1.5h1.5v-1.5h1.5v-1.5h1.5v1.5 1.5 1.5 1.5 1.5h1.5v1.5h1.5 1.5v1.5h-1.5v1.5zm3-3v-1.5-1.5-1.5-1.5-1.5h1.5v-1.5h1.5v1.5 1.5 1.5 1.5 1.5h-1.5v1.5zm12 1.5h1.5v1.5h-1.5-1.5-1.5-1.5-1.5v-1.5h-1.5v-1.5-1.5-1.5-1.5-1.5h1.5v-1.5h1.5v1.5 1.5 1.5 1.5h1.5v1.5 1.5h1.5zm1.5 0v-1.5h1.5v1.5zm-4.5-3v-1.5h1.5v1.5zm1.5-1.5v-1.5h1.5v1.5zm1.5-1.5v-1.5h-1.5v-1.5h-1.5-1.5v-1.5h1.5 1.5 1.5 1.5v1.5h1.5v1.5h-1.5v1.5z"/></g></svg>