<svg viewBox="0 0 82 60" xmlns="http://www.w3.org/2000/svg"><g fill="none" fill-rule="evenodd" transform="translate(.603027 .750977)"><path d="m19.989173 5.491783h.6743c1.9532 0 3.5366 1.56709 3.5366 3.5002v34.11584h1.9176v-19.4669c0-.9183.5907-1.7001 1.4165-1.9935-.1405-.3771-.2171-.7848-.2171-1.2103v-.6674c-.7103-.3443-1.1994-1.0669-1.1994-1.9025v-2.8358c0-1.1694.9578-2.1173 2.1393-2.1173h2.8688c.8442 0 1.5743.484 1.9223 1.187h.6743c1.9531 0 3.5365 1.5671 3.5365 3.5002v.5602c.0526.078.1001.1596.1421.2443h.6743c1.9532 0 3.5365 1.5671 3.5365 3.5002v3.9223h1.9176v-2.1874c0-1.1694.9578-2.1174 2.1394-2.1174h2.8687c.8443 0 1.5744.4841 1.9223 1.1871h.6743c1.9532 0 3.5366 1.5671 3.5366 3.5002v.5602c.0526.0779.1001.1595.1421.2443h.6743c.3844 0 .7546.0607 1.1012.173v-7.7286c-.3466.1123-.7168.173-1.1012.173h-2.8688c-1.9532 0-3.5365-1.5671-3.5365-3.5002v-.6674c-.7103-.3444-1.1994-1.0669-1.1994-1.9025v-2.8358c0-1.1694.9578-2.11736 2.1393-2.11736h2.2136v-2.1874c0-1.16937.9578-2.11733 2.1393-2.11733h2.2137v-2.18741c0-1.16937.9578-2.117323 2.1393-2.117323h2.8687c.8443 0 1.5744.484053 1.9224 1.187053h.6742c1.9532 0 3.5366 1.56709 3.5366 3.50019v.5602c.0526.07795.1001.15956.1421.24434h.6743c1.9532 0 3.5365 1.56709 3.5365 3.5002v34.11584h2.5728c.8443 0 1.5743.4841 1.9223 1.1871h.6743c1.9531 0 3.5365 1.5671 3.5365 3.5002v2.8358c0 1.9331-1.5834 3.5002-3.5365 3.5002h-.8164v.8045c0 1.9331-1.5834 3.5002-3.5366 3.5002h-7.2217c-1.9532 0-3.5365-1.5671-3.5365-3.5002v-.6674c-.0838-.0406-.1644-.0864-.2416-.1371h-.5748c-1.9532 0-3.5366-1.5671-3.5366-3.5002v-.6674c-.7103-.3444-1.1993-1.0669-1.1993-1.9025v-2.7124c-.3466.1123-.7168.173-1.1012.173h-.8164v.8046c0 1.9331-1.5834 3.5002-3.5366 3.5002h-.8164v.8045c0 1.9331-1.5833 3.5002-3.5365 3.5002h-.8164v.8045c0 1.9331-1.5834 3.5002-3.5366 3.5002h-2.8687c-1.9532 0-3.5366-1.5671-3.5366-3.5002v-.6674c-.0837-.0406-.1644-.0864-.2416-.1371h-.5748c-1.2118 0-2.2812-.6032-2.9185-1.5229-.6373.9197-1.7068 1.5229-2.9186 1.5229h-.8164v.8045c0 1.9331-1.5833 3.5002-3.5365 3.5002h-7.2217c-1.9532 0-3.5366-1.5671-3.5366-3.5002v-.6674c-.0837-.0406-.1644-.0864-.2416-.1371h-.5748c-1.9531 0-3.5365-1.5671-3.5365-3.5002v-.6674c-.71031-.3444-1.19939-1.0669-1.19939-1.9025v-28.6013c-.34656.1123-.71671.173-1.1012.173h-2.86877c-1.95318 0-3.53654-1.5671-3.53653-3.5002v-.6674c-.7103-.3444-1.199383-1.0669-1.199383-1.9025v-2.8358c0-1.1694.957803-2.11736 2.139313-2.11736h2.21363v-2.1874c0-1.16937.9578-2.11733 2.13931-2.11733h2.21363v-2.18741c0-1.16937.95779-2.117323 2.13929-2.117323h2.8688c.8443 0 1.5743.484053 1.9223 1.187053h.6743c1.9532 0 3.5365 1.56709 3.5365 3.50019v.56021c.0526.07795.1002.15955.1421.24433zm24.7396 31.49694v.6674c0 .4456.0842.8718.2376 1.2638-.6101.2097-1.0946.6851-1.3122 1.2863-.3819-.1397-.7949-.216-1.226-.216h-.6743c-.0419-.0848-.0894-.1664-.1421-.2444v-3.736c.6185.5247 1.4221.8417 2.3006.8417h.5748c.0772.0507.1579.0966.2416.1372z" fill="#302f2c"/><g fill="#efecd3" fill-rule="nonzero"><path d="m23.161673 48.796423v-3.5703c0-.4057.3323-.7345.7421-.7345h3.6109v3.5703c0 .4056-.3323.7345-.7421.7345zm-21.02261-34.4984c-.40985 0-.74209-.3289-.74209-.7345v-2.8358c0-.4056.33224-.7345.74209-.7345h3.61085v3.5703c0 .4056-.33224.7345-.74209.7345zm13.05881 38.8031c-.4098 0-.7421-.3288-.7421-.7345v-2.8358c0-.4056-.3322-.7344-.7421-.7344h-2.8687c-.4099 0-.7421-.3289-.7421-.7345v-37.3342c0-.4056-.3323-.7345-.7421-.7345h-3.61086v-3.57024c0-.40563.33224-.73446.74209-.73446h2.86877c.4098 0 .7421-.32883.7421-.73446v-2.83581c0-.40564.3322-.73446.7421-.73446h2.8687c.4099 0 .7421.32882.7421.73446v2.83581c0 .40563.3323.73446.7421.73446h2.8688c.4098 0 .7421.32883.7421.73446v41.63894c0 .4056.3322.7345.7421.7345h3.6108v3.5702c0 .4057-.3322.7345-.7421.7345z"/><path d="m44.926373 44.491623v-3.5703c0-.4056.3323-.7344.7421-.7344h3.6109v3.5703c0 .4056-.3323.7344-.7421.7344zm-7.9638 8.6095c-.4098 0-.7421-.3288-.7421-.7345v-2.8358c0-.4056-.3322-.7344-.7421-.7344h-2.8687c-.4099 0-.7421-.3289-.7421-.7345v-2.8358c0-.4057-.3323-.7345-.7421-.7345h-3.6108v-20.8498c0-.4057.3322-.7345.742-.7345h2.8688c.4098 0 .7421-.3288.7421-.7344v-3.5703h3.6108c.4099 0 .7421.3288.7421.7344v20.1154c0 .4057.3323.7345.7421.7345h2.8688c.4098 0 .7421.3288.7421.7344v2.8359c0 .4056.3322.7344.7421.7344h3.6108v3.5703c0 .4056-.3322.7345-.7421.7345h-2.8687c-.4099 0-.7421.3288-.7421.7344v2.8358c0 .4057-.3323.7345-.7421.7345zm12.3168-12.9142v-3.6309c0-.4057-.3323-.7345-.7421-.7345h-2.8688c-.4098 0-.7421-.3288-.7421-.7344v-2.8359c0-.4056-.3322-.7344-.7421-.7344h-2.8687c-.4099 0-.7421-.3288-.7421-.7345v-2.8358c0-.4056.3322-.7345.7421-.7345h2.8687c.4099 0 .7421-.3288.7421-.7344v-2.8358c0-.4057.3323-.7345.7421-.7345h2.8688c.4098 0 .7421.3288.7421.7345v2.8358c0 .4056.3322.7344.742.7344h2.8688c.4098 0 .7421.3289.7421.7345v11.5059c0 .4057-.3323.7345-.7421.7345zm-21.0227-21.5843c-.4098 0-.742-.3288-.742-.7345v-2.8358c0-.4056.3322-.7344.742-.7344h2.8688c.4098 0 .7421.3288.7421.7344v3.5703z"/><path d="m71.044073 48.796423v-3.5703c0-.4057.3322-.7345.742-.7345h2.8688c.4099 0 .7421.3288.7421.7345v2.8358c0 .4056-.3322.7345-.7421.7345zm-21.0227-34.4984c-.4098 0-.742-.3289-.742-.7345v-2.8358c0-.4056.3322-.7345.742-.7345h3.6109v3.5703c0 .4056-.3323.7345-.7421.7345zm13.0589 38.8031c-.4099 0-.7421-.3288-.7421-.7345v-2.8358c0-.4056-.3323-.7344-.7421-.7344h-2.8688c-.4098 0-.7421-.3289-.7421-.7345v-37.3342c0-.4056-.3322-.7345-.7421-.7345h-3.6108v-3.57024c0-.40563.3322-.73446.7421-.73446h2.8687c.4099 0 .7421-.32883.7421-.73446v-2.83581c0-.40564.3323-.73446.7421-.73446h2.8688c.4098 0 .7421.32882.7421.73446v2.83581c0 .40563.3322.73446.7421.73446h2.8687c.4099 0 .7421.32883.7421.73446v41.63894c0 .4056.3323.7345.7421.7345h3.6109v3.5702c0 .4057-.3323.7345-.7421.7345z"/></g></g></svg>