<svg viewBox="0 0 50 87" xmlns="http://www.w3.org/2000/svg"><g fill="var(--fill)" transform="translate(.5)"><path d="m16 0h4v4h-4z" transform="matrix(0 -1 1 0 23.5 20)"/><path d="m10 6h8v4h-8z" transform="matrix(0 -1 1 0 13.5 22)"/><path d="m6 14h8v4h-8z" transform="matrix(0 -1 1 0 1.5 26)"/><path d="m2 22h8v4h-8z" transform="matrix(0 -1 1 0 -10.5 30)"/><path d="m-2 30h8v4h-8z" transform="matrix(0 -1 1 0 -22.5 34)"/><path d="m0 44h4v4h-4z" transform="matrix(0 -1 1 0 -36.5 48)"/><path d="m0 40h4v4h-4z" transform="matrix(0 -1 1 0 -32.5 44)"/><path d="m4 40h4v4h-4z" transform="matrix(0 -1 1 0 -28.5 48)"/><path d="m8 44h4v4h-4z" transform="matrix(0 -1 1 0 -28.5 56)"/><path d="m12 44h4v4h-4z" transform="matrix(0 -1 1 0 -24.5 60)"/><path d="m20 44h4v4h-4z" transform="matrix(0 -1 1 0 -16.5 68)"/><path d="m24 44h4v4h-4z" transform="matrix(0 -1 1 0 -12.5 72)"/><path d="m28 40h4v4h-4z" transform="matrix(0 -1 1 0 -4.5 72)"/><path d="m32 40h4v4h-4z" transform="matrix(0 -1 1 0 -.5 76)"/><path d="m32 44h4v4h-4z" transform="matrix(0 -1 1 0 -4.5 80)"/><path d="m16 48h4v4h-4z" transform="matrix(0 -1 1 0 -24.5 68)"/><path d="m4 48h4v4h-4z" transform="matrix(0 -1 1 0 -36.5 56)"/><path d="m4 32h4v4h-4z" transform="matrix(0 -1 1 0 -20.5 40)"/><path d="m8 36h4v4h-4z" transform="matrix(0 -1 1 0 -20.5 48)"/><path d="m12 36h4v4h-4z" transform="matrix(0 -1 1 0 -16.5 52)"/><path d="m20 36h4v4h-4z" transform="matrix(0 -1 1 0 -8.5 60)"/><path d="m24 36h4v4h-4z" transform="matrix(0 -1 1 0 -4.5 64)"/><path d="m28 32h4v4h-4z" transform="matrix(0 -1 1 0 3.5 64)"/><path d="m-2 22h40v4h-40z" transform="matrix(0 -1 1 0 1.5 42)"/><path d="m28 48h4v4h-4z" transform="matrix(0 -1 1 0 -12.5 80)"/><path d="m8 52h4v4h-4z" transform="matrix(0 -1 1 0 -36.5 64)"/><path d="m24 52h4v4h-4z" transform="matrix(0 -1 1 0 -20.5 80)"/><path d="m12 56h12v4h-12z" transform="matrix(0 -1 1 0 -32.5 76)"/><path d="m12 56h4v4h-4z" transform="matrix(0 -1 1 0 -36.5 72)"/><path d="m20 56h4v4h-4z" transform="matrix(0 -1 1 0 -28.5 80)"/><path d="m18 6h8v4h-8z" transform="matrix(0 -1 1 0 21.5 30)"/><path d="m22 14h8v4h-8z" transform="matrix(0 -1 1 0 17.5 42)"/><path d="m26 22h8v4h-8z" transform="matrix(0 -1 1 0 13.5 54)"/><path d="m30 30h8v4h-8z" transform="matrix(0 -1 1 0 9.5 66)"/><path d="m15 87h-1.5v-1.5-1.5-1.5-1.5-1.5-1.5h-1.5v1.5h-1.5v1.5 1.5 1.5 1.5 1.5h-1.5-1.5v-1.5-1.5-1.5-1.5-1.5-1.5h-1.5v1.5h-1.5v1.5 1.5 1.5 1.5 1.5h-1.5-1.5v-1.5-1.5-1.5-1.5-1.5h-1.5v-1.5h1.5v-1.5h1.5v-1.5h1.5v1.5 1.5h1.5v-1.5h1.5v-1.5h1.5 1.5v1.5 1.5h1.5v-1.5h1.5v-1.5h1.5 1.5v1.5 1.5 1.5 1.5 1.5 1.5h1.5v1.5h-1.5v1.5zm6-12v-1.5-1.5h1.5v-1.5h1.5v1.5 1.5h-1.5v1.5zm1.5 12h-1.5v-1.5-1.5-1.5-1.5h-1.5v-1.5h1.5v-1.5h1.5v-1.5h1.5v1.5 1.5 1.5 1.5 1.5h1.5v1.5h-1.5v1.5zm15 0h-1.5v-1.5-1.5-1.5-1.5-1.5-1.5-1.5h-1.5v1.5h-1.5v1.5h-1.5v1.5 1.5 1.5h1.5v1.5h-1.5v1.5h-1.5-1.5v-1.5-1.5-1.5-1.5-1.5h-1.5v-1.5h1.5v-1.5h1.5v-1.5h1.5v1.5 1.5h1.5v-1.5h1.5v-1.5h1.5 1.5 1.5v1.5 1.5 1.5 1.5 1.5 1.5h1.5v1.5h-1.5v1.5zm7.5 0h-1.5v-1.5-1.5-1.5-1.5-1.5-1.5h-1.5v-1.5h1.5v-1.5h-1.5v-1.5h1.5v-1.5h1.5v-1.5h1.5v1.5 1.5 1.5 1.5h1.5 1.5v1.5h-1.5-1.5v1.5 1.5 1.5 1.5h1.5v1.5h-1.5v1.5zm3-3v-1.5h1.5v1.5z"/></g></svg>