<svg fill="none" preserveAspectRatio="xMidYMin slice" viewBox="0 0 64 93" xmlns="http://www.w3.org/2000/svg" xmlns:xlink="http://www.w3.org/1999/xlink"><clipPath id="a"><path d="m0 0h64v64h-64z"/></clipPath><g fill="var(--fill)"><g clip-path="url(#a)"><path d="m30 4h4v4h-4z" transform="matrix(0 -1 1 0 26 34)"/><path d="m26 12h8v4h-8z" transform="matrix(0 -1 1 0 14 38)"/><path d="m22 20h8v4h-8z" transform="matrix(0 -1 1 0 2 42)"/><path d="m18 28h8v4h-8z" transform="matrix(0 -1 1 0 -10 46)"/><path d="m14 36h8v4h-8z" transform="matrix(0 -1 1 0 -22 50)"/><path d="m14 48h4v4h-4z" transform="matrix(0 -1 1 0 -34 62)"/><path d="m14 44h4v4h-4z" transform="matrix(0 -1 1 0 -30 58)"/><path d="m18 44h4v4h-4z" transform="matrix(0 -1 1 0 -26 62)"/><path d="m22 48h4v4h-4z" transform="matrix(0 -1 1 0 -26 70)"/><path d="m26 48h4v4h-4z" transform="matrix(0 -1 1 0 -22 74)"/><path d="m34 48h4v4h-4z" transform="matrix(0 -1 1 0 -14 82)"/><path d="m38 48h4v4h-4z" transform="matrix(0 -1 1 0 -10 86)"/><path d="m42 44h4v4h-4z" transform="matrix(0 -1 1 0 -2 86)"/><path d="m46 44h4v4h-4z" transform="matrix(0 -1 1 0 2 90)"/><path d="m46 48h4v4h-4z" transform="matrix(0 -1 1 0 -2 94)"/><path d="m30 52h4v4h-4z" transform="matrix(0 -1 1 0 -22 82)"/><path d="m18 52h4v4h-4z" transform="matrix(0 -1 1 0 -34 70)"/><path d="m18 36h4v4h-4z" transform="matrix(0 -1 1 0 -18 54)"/><path d="m22 40h4v4h-4z" transform="matrix(0 -1 1 0 -18 62)"/><path d="m26 40h4v4h-4z" transform="matrix(0 -1 1 0 -14 66)"/><path d="m34 40h4v4h-4z" transform="matrix(0 -1 1 0 -6 74)"/><path d="m38 40h4v4h-4z" transform="matrix(0 -1 1 0 -2 78)"/><path d="m42 36h4v4h-4z" transform="matrix(0 -1 1 0 6 78)"/><path d="m30 44h40v4h-40z" transform="matrix(0 -1 1 0 -14 74)"/><path d="m42 52h4v4h-4z" transform="matrix(0 -1 1 0 -10 94)"/><path d="m22 56h4v4h-4z" transform="matrix(0 -1 1 0 -34 78)"/><path d="m38 56h4v4h-4z" transform="matrix(0 -1 1 0 -18 94)"/><path d="m30 64h12v4h-12z" transform="matrix(0 -1 1 0 -34 94)"/><path d="m26 60h4v4h-4z" transform="matrix(0 -1 1 0 -34 86)"/><path d="m34 60h4v4h-4z" transform="matrix(0 -1 1 0 -26 94)"/><path d="m34 12h8v4h-8z" transform="matrix(0 -1 1 0 22 46)"/><path d="m38 20h8v4h-8z" transform="matrix(0 -1 1 0 18 58)"/><path d="m42 28h8v4h-8z" transform="matrix(0 -1 1 0 14 70)"/><path d="m46 36h8v4h-8z" transform="matrix(0 -1 1 0 10 82)"/></g><path d="m21.5 87h-1.5v-1.5-1.5-1.5-1.5-1.5-1.5h-1.5v1.5h-1.5v1.5 1.5 1.5 1.5 1.5h-1.5-1.5v-1.5-1.5-1.5-1.5-1.5-1.5h-1.5v1.5h-1.5v1.5 1.5 1.5 1.5 1.5h-1.5-1.5v-1.5-1.5-1.5-1.5-1.5h-1.5v-1.5h1.5v-1.5h1.5v-1.5h1.5v1.5 1.5h1.5v-1.5h1.5v-1.5h1.5 1.5v1.5 1.5h1.5v-1.5h1.5v-1.5h1.5 1.5v1.5 1.5 1.5 1.5 1.5 1.5h1.5v1.5h-1.5v1.5zm6-12v-1.5-1.5h1.5v-1.5h1.5v1.5 1.5h-1.5v1.5zm1.5 12h-1.5v-1.5-1.5-1.5-1.5h-1.5v-1.5h1.5v-1.5h1.5v-1.5h1.5v1.5 1.5 1.5 1.5 1.5h1.5v1.5h-1.5v1.5zm15 0h-1.5v-1.5-1.5-1.5-1.5-1.5-1.5-1.5h-1.5v1.5h-1.5v1.5h-1.5v1.5 1.5 1.5h1.5v1.5h-1.5v1.5h-1.5-1.5v-1.5-1.5-1.5-1.5-1.5h-1.5v-1.5h1.5v-1.5h1.5v-1.5h1.5v1.5 1.5h1.5v-1.5h1.5v-1.5h1.5 1.5 1.5v1.5 1.5 1.5 1.5 1.5 1.5h1.5v1.5h-1.5v1.5zm7.5 0h-1.5v-1.5-1.5-1.5-1.5-1.5-1.5h-1.5v-1.5h1.5v-1.5h-1.5v-1.5h1.5v-1.5h1.5v-1.5h1.5v1.5 1.5 1.5 1.5h1.5 1.5v1.5h-1.5-1.5v1.5 1.5 1.5 1.5h1.5v1.5h-1.5v1.5zm3-3v-1.5h1.5v1.5z"/></g></svg>