<svg fill="none" viewBox="0 0 64 93" xmlns="http://www.w3.org/2000/svg" preserveAspectRatio="xMidYMin slice"><g fill="var(--fill)"><path d="m7 4h4v56h-4z"/><path d="m11 0h28v4h-28z"/><path d="m11 60h40v4h-40z"/><path d="m47 12h4v4h-4z"/><path d="m39 4h4v4h-4z"/><path d="m35 4h4v4h-4z"/><path d="m35 8h4v4h-4z"/><path d="m35 12h4v4h-4z"/><path d="m35 16h4v4h-4z"/><path d="m19 48h4v4h-4z"/><path d="m23 48h4v4h-4z"/><path d="m27 48h4v4h-4z"/><path d="m39 16h4v4h-4z"/><path d="m43 16h4v4h-4z"/><path d="m47 16h4v4h-4z"/><path d="m43 8h4v4h-4z"/><path d="m51 16h4v44h-4z"/><path d="m15.5 91.5h-1.5v-1.5-1.5-1.5-1.5-1.5-1.5-1.5h-1.5v-1.5h1.5v-1.5h1.5v-1.5h1.5v1.5 1.5 1.5 1.5h1.5v1.5h1.5v1.5h1.5v1.5h-1.5-1.5v-1.5h-1.5v1.5 1.5h1.5v1.5h-1.5v1.5zm6-6v-1.5-1.5-1.5-1.5h-1.5v-1.5h-1.5v-1.5h-1.5v-1.5h1.5 1.5 1.5v1.5h1.5v1.5h1.5v1.5 1.5 1.5 1.5h-1.5v1.5zm7.5 1.5h-1.5v-1.5-1.5-1.5-1.5-1.5h-1.5v-1.5h1.5v-1.5-1.5-1.5h1.5v-1.5h1.5v1.5 1.5 1.5 1.5h1.5 1.5v1.5h-1.5-1.5v1.5 1.5 1.5h1.5v1.5h-1.5v1.5zm6-12h-1.5v-1.5h-1.5v-1.5h-1.5v-1.5h1.5 1.5v1.5h1.5v-1.5h1.5v1.5 1.5 1.5zm6 16.5h-1.5v-1.5-1.5-1.5-1.5-1.5-1.5-1.5h-1.5v-1.5h1.5v-1.5h1.5v-1.5h1.5v1.5 1.5 1.5 1.5h1.5v1.5h1.5v1.5h1.5v1.5h-1.5-1.5v-1.5h-1.5v1.5 1.5h1.5v1.5h-1.5v1.5zm6-6v-1.5-1.5-1.5-1.5h-1.5v-1.5h-1.5v-1.5h-1.5v-1.5h1.5 1.5 1.5v1.5h1.5v1.5h1.5v1.5 1.5 1.5 1.5h-1.5v1.5z"/></g></svg>