<svg fill="none" viewBox="0 0 64 93" xmlns="http://www.w3.org/2000/svg" xmlns:xlink="http://www.w3.org/1999/xlink"><clipPath id="a"><path d="m0 0h64v64h-64z"/></clipPath><g fill="var(--fill)"><g clip-path="url(#a)"><path d="m6 56h4v4h-4z"/><path d="m10 40h4v4h-4z"/><path d="m6 44h4v4h-4z"/><path d="m10 56h4v4h-4z"/><path d="m14 60h4v4h-4z"/><path d="m22 60h4v4h-4z"/><path d="m30 56h4v4h-4z"/><path d="m18 60h4v4h-4z"/><path d="m26 60h4v4h-4z"/><path d="m42 60h16v4h-16z"/><path d="m34 56h4v4h-4z"/><path d="m38 56h4v4h-4z"/><path d="m18 24h4v4h-4z" transform="matrix(0 -1 1 0 -6 42)"/><path d="m30 12h4v4h-4z" transform="matrix(0 -1 1 0 18 42)"/><path d="m34 8h4v4h-4z" transform="matrix(0 -1 1 0 26 42)"/><path d="m38 12h4v4h-4z" transform="matrix(0 -1 1 0 26 50)"/><path d="m42 16h4v4h-4z" transform="matrix(0 -1 1 0 26 58)"/><path d="m38 4h4v4h-4z" transform="matrix(0 -1 1 0 34 42)"/><path d="m42 8h4v4h-4z" transform="matrix(0 -1 1 0 34 50)"/><path d="m46 12h4v4h-4z" transform="matrix(0 -1 1 0 34 58)"/><path d="m10 32h4v4h-4z" transform="matrix(0 -1 1 0 -22 42)"/><path d="m6 36h4v4h-4z" transform="matrix(0 -1 1 0 -30 42)"/><path d="m10 48h4v4h-4z" transform="matrix(0 -1 1 0 -38 58)"/><path d="m6 40h4v4h-4z" transform="matrix(0 -1 1 0 -34 46)"/><path d="m6 44h4v4h-4z" transform="matrix(0 -1 1 0 -38 50)"/><path d="m14 48h4v4h-4z" transform="matrix(0 -1 1 0 -34 62)"/><path d="m26 40h4v4h-4z" transform="matrix(0 -1 1 0 -14 66)"/><path d="m22 44h4v4h-4z" transform="matrix(0 -1 1 0 -22 66)"/><path d="m18 48h4v4h-4z" transform="matrix(0 -1 1 0 -30 66)"/><path d="m30 36h4v4h-4z" transform="matrix(0 -1 1 0 -6 66)"/><path d="m34 32h4v4h-4z" transform="matrix(0 -1 1 0 2 66)"/><path d="m38 28h4v4h-4z" transform="matrix(0 -1 1 0 10 66)"/><path d="m42 24h4v4h-4z" transform="matrix(0 -1 1 0 18 66)"/><path d="m46 20h4v4h-4z" transform="matrix(0 -1 1 0 26 66)"/><path d="m50 16h4v4h-4z" transform="matrix(0 -1 1 0 34 66)"/><path d="m22 20h4v4h-4z" transform="matrix(0 -1 1 0 2 42)"/><path d="m14 28h4v4h-4z" transform="matrix(0 -1 1 0 -14 42)"/><path d="m26 16h4v4h-4z" transform="matrix(0 -1 1 0 10 42)"/></g><path d="m14.5 87h-1.5-1.5-1.5v-1.5h-1.5v-1.5-1.5h1.5v1.5h1.5v1.5h1.5 1.5v-1.5h-1.5v-1.5h-1.5v-1.5h-1.5v-1.5h-1.5v-1.5-1.5h1.5v-1.5h1.5 1.5 1.5 1.5v1.5h1.5v1.5h-1.5-1.5v-1.5h-1.5-1.5v1.5h1.5v1.5h1.5v1.5h1.5v1.5h1.5v1.5 1.5h-1.5v1.5zm6-12v-1.5-1.5h1.5v-1.5h1.5v1.5 1.5h-1.5v1.5zm1.5 12h-1.5v-1.5-1.5-1.5-1.5h-1.5v-1.5h1.5v-1.5h1.5v-1.5h1.5v1.5 1.5 1.5 1.5 1.5h1.5v1.5h-1.5v1.5zm10.5 3h1.5v1.5h-1.5-1.5-1.5-1.5v-1.5h-1.5v-1.5-1.5h1.5 1.5v1.5h1.5v1.5zm1.5 0v-1.5-1.5-1.5h-1.5v-1.5h1.5v-1.5-1.5-1.5h-1.5v-1.5h-1.5v-1.5h-1.5v1.5 1.5 1.5 1.5 1.5h1.5v1.5h1.5v1.5h-1.5-1.5v-1.5h-1.5v-1.5h-1.5v-1.5-1.5-1.5-1.5h1.5v-1.5h1.5v-1.5h1.5 1.5v1.5h1.5v-1.5h1.5 1.5v1.5h1.5v1.5h-1.5v1.5 1.5 1.5 1.5 1.5 1.5 1.5h-1.5v1.5zm16.5-3h-1.5v-1.5-1.5-1.5-1.5-1.5-1.5-1.5h-1.5v1.5h-1.5v1.5h-1.5v1.5 1.5 1.5h1.5v1.5h-1.5v1.5h-1.5-1.5v-1.5-1.5-1.5-1.5-1.5h-1.5v-1.5h1.5v-1.5h1.5v-1.5h1.5v1.5 1.5h1.5v-1.5h1.5v-1.5h1.5 1.5 1.5v1.5 1.5 1.5 1.5 1.5 1.5h1.5v1.5h-1.5v1.5z"/></g></svg>