<svg height="16" viewBox="0 0 16 16" width="16" xmlns="http://www.w3.org/2000/svg"><g fill="none" fill-rule="evenodd" transform="translate(0 2)"><path d="m3.95883922 1.09893407h.13354194c.38682755 0 .70040635.31358613.70040635.70040636v6.82678194h.37978553v-3.89545436c0-.18375939.1169811-.34019339.2805304-.39889644-.02780902-.07547641-.04299957-.15705687-.04299957-.24219132v-.13354194c-.14067189-.06891069-.23753083-.21350295-.23753083-.38070883v-.5674653c0-.2339915.18968759-.42368642.42368642-.42368642h.56815411c.16721321 0 .31179815.09686627.38070884.23753816h.13354193c.38682756 0 .7003917.31357881.7003917.70040636v.11210077c.01040549.0156009.01985836.03192726.02813878.04889113h.1335859c.38683488 0 .7003917.31358613.7003917.70040635v.78485932h.37980019v-.43771184c0-.23399883.18964362-.42368641.42369374-.42368641h.5681248c.16722054 0 .31179815.09685894.38067953.23753083h.13358592c.3868349 0 .7003917.31358613.7003917.70041368v.11209345c.0104055.0156009.0198583.03192725.0281388.04889845h.1335859c.0761359 0 .1494139.0121495.2180755.03461656v-1.54654079c-.0686616.02246705-.1419396.03461655-.2180755.03461655h-.5681981c-.3868349 0-.70039172-.3135788-.70039172-.70040635v-.13354194c-.14069387-.06891801-.23756747-.21350296-.23756747-.38070883v-.5674653c0-.2339915.1897169-.42368642.42369374-.42368642h.43842265v-.43771184c0-.23399883.1897169-.42368641.4236937-.42368641h.4384227v-.43771477c0-.23399737.1896436-.42368847.4236937-.42368847h.5681248c.1672205 0 .3117982.09686172.3807528.23753508h.1335126c.3868349 0 .7003917.3135832.7003917.70040709v.11210078c.0104055.0156009.0198584.03192725.0281388.04889112h.1335859c.3868349 0 .7003917.31358613.7003917.70040636v6.82678194h.5095024c.1672205 0 .3117981.0968736.3807528.23749419h.1335126c.3868349 0 .7003917.3136301.7003917.70046498v.56746526c0 .3868349-.3135568.7003917-.7003917.7003917h-.1616514v.1609919c0 .3868349-.3136301.7003917-.700465.7003917h-1.4302412c-.3868348 0-.7003917-.3135568-.7003917-.7003917v-.1335859c-.0165608-.0080606-.0325354-.0172936-.0478505-.027406h-.1138009c-.3868348 0-.7004649-.3135568-.7004649-.7003917v-.13358586c-.1406206-.06888138-.2374942-.21345899-.2374942-.38067953v-.54277059c-.0686616.02249637-.1419396.03458725-.2180755.03458725h-.1617247v.16099189c0 .38683488-.3135568.70046498-.7003917.70046498h-.1617247v.16099186c0 .3868349-.31355682.7003917-.7003917.7003917h-.1616514v.1609919c0 .3868349-.3136301.7003917-.70046498.7003917h-.5681248c-.38683488 0-.70040635-.3135568-.70040635-.7003917v-.1335859c-.01659016-.0080606-.03256477-.0172936-.04784325-.027406h-.11384479c-.24000031 0-.45180321-.1206889-.57801734-.3047634-.12620681.1840745-.33801704.3047634-.57801734.3047634h-.16168071v.1609919c0 .3868349-.31358614.7003917-.70041369.7003917h-1.43024851c-.38682755 0-.70040635-.3135568-.70040635-.7003917v-.1335859c-.01659016-.0080606-.03256477-.0172936-.04785058-.027406h-.11383746c-.38682023 0-.70040636-.3135568-.70040636-.7003917v-.13358586c-.14067189-.06888138-.23753816-.21345899-.23753816-.38067953v-5.72328763c-.06863223.02246705-.1419396.03461655-.21809016.03461655h-.56815411c-.38682682 0-.70040856-.3135788-.70040856-.70040635v-.13354194c-.14067409-.06891801-.2375353-.21350296-.2375353-.38070883v-.5674653c0-.2339915.18969132-.42368642.42368869-.42368642h.43840505v-.43771184c0-.23399883.18969491-.42368641.42368641-.42368641h.43840798v-.43771477c0-.23399737.18969492-.42368847.42369375-.42368847h.56815411c.16720588 0 .31179082.09686172.38070883.23753508h.13354194c.38682755 0 .70040636.3135832.70040636.70040709v.11210078c.01042014.0156009.01983637.03192725.0281461.04889112zm4.89962758 6.30271191v.13351263c0 .0891794.0167074.17447506.04704452.25295586-.12083552.04191505-.21675651.13710325-.25984401.25735255-.07562295-.02791894-.15747455-.04323405-.24284349-.04323405h-.13351262c-.00828042-.01692724-.01773329-.03326824-.02813878-.04887647v-.74759743c.12244764.10502212.28160759.16840764.45564298.16840764h.11380083c.01531511.01018565.03128973.01934541.04785057.02747927z" fill="#212125"/><g fill="#eb4130" fill-rule="nonzero"><path d="m4.58712531 9.7642772v-.71446108c0-.0811921.0658037-.14699579.1469738-.14699579h.71512059v.71446108c0 .08119209-.06579637.14699579-.14696647.14699579zm-4.16350257-6.90335019c-.08116938 0-.14696941-.0658037-.14696941-.14696648v-.56746529c0-.08117011.06580077-.14696648.14696941-.14696648h.71512498v.71443177c0 .08116278-.06579637.14696648-.14696647.14696648zm2.58628758 7.76473379c-.08117011 0-.1469738-.0658037-.1469738-.1469958v-.56746529c0-.08119209-.06579637-.14692251-.14696648-.14692251h-.56815411c-.08117011 0-.14697381-.0658037-.14697381-.14699579v-7.47078617c0-.08117011-.06579637-.14696648-.14696648-.14696648h-.71512792v-.71443178c0-.08117011.0658037-.1469738.14696648-.1469738h.56816144c.08117011 0 .14696648-.06579637.14696648-.14696648v-.56746237c0-.08116937.0658037-.14696941.14697381-.14696941h.56815411c.08117011 0 .14696648.06580004.14696648.14696941v.56746237c0 .08117011.06580369.14696648.1469738.14696648h.56815411c.08117011 0 .14696648.06580369.14696648.1469738v8.33218443c0 .08119209.0658037.14699579.14697381.14699579h.71512059v.7143878c0 .0811921-.06579637.1469958-.14696648.1469958z"/><path d="m8.89759729 8.90282033v-.71438781c0-.08119209.06580369-.14699579.14699579-.14699579h.71512059v.71446109c0 .08111881-.0658037.14692251-.14699579.14692251zm-1.57723697 1.72284047c-.08114813 0-.1469445-.0658037-.1469445-.1469958v-.56746529c0-.08119209-.0658037-.14692251-.1469738-.14692251h-.56815412c-.0811701 0-.1469738-.0658037-.1469738-.14699579v-.56746529c0-.0811921-.06579637-.14699579-.14696648-.14699579h-.71512792v-4.17214499c0-.0811701.0658037-.1469738.14697381-.1469738h.56815411c.08117011 0 .14696648-.06579637.14696648-.14696648v-.71443178h.71512792c.0811701 0 .1469738.0658037.1469738.14697381v4.02516385c0 .08119209.06579637.14699579.1469445.14699579h.56819808c.08111881 0 .14692251.0658037.14692251.14699579v.5674653c0 .08111881.0658037.14692251.14699579.14692251h.71512059v.71446108c0 .08119209-.0658037.14699579-.14699579.14699579h-.5681248c-.08119209 0-.14699579.06573042-.14699579.14692251v.56746529c0 .0811921-.0658037.1469958-.14692251.1469958zm2.43935335-2.58422407v-.72655197c0-.08117743-.0658037-.14697381-.14699579-.14697381h-.5681248c-.0811921 0-.14699579-.06580369-.14699579-.1469738v-.56745797c0-.08117011-.0658037-.14697381-.14699579-.14697381h-.5681248c-.08119209 0-.14699579-.06579637-.14699579-.14696647v-.5674653c0-.08117011.0658037-.14696648.14699579-.14696648h.5681248c.08119209 0 .14699579-.0658037.14699579-.14697381v-.56745797c0-.0811701.06580369-.1469738.14699579-.1469738h.5681248c.08119209 0 .14699579.0658037.14699579.1469738v.56745797c0 .08117011.06580369.14697381.14692251.14697381h.56819812c.081192 0 .1469225.06579637.1469225.14696648v2.30236734c0 .08119209-.0657305.14699579-.1469225.14699579zm-4.16352016-4.31913345c-.08117011 0-.14697381-.06579637-.14697381-.14696647v-.5674653c0-.08117011.0658037-.14696648.14697381-.14696648h.56815411c.08117011 0 .14696648.06579637.14696648.14696648v.71443177z"/><path d="m14.070149 9.7642772v-.71446108c0-.0811921.0658037-.14699579.1469958-.14699579h.5681248c.0811921 0 .1469958.06580369.1469958.14699579v.56746529c0 .08119209-.0658037.14699579-.1469958.14699579zm-4.16351282-6.90335019c-.08111882 0-.14692251-.0658037-.14692251-.14696648v-.56746529c0-.08117011.06580369-.14696648.14692251-.14696648h.71512062v.71443177c0 .08116278-.0657305.14696648-.1469225.14696648zm2.58634912 7.76473379c-.0811921 0-.1469958-.0658037-.1469958-.1469958v-.56746529c0-.08119209-.0658037-.14692251-.1469958-.14692251h-.5681248c-.0811921 0-.1469958-.0658037-.1469958-.14699579v-7.47078617c0-.08117011-.0658037-.14696648-.1469225-.14696648h-.7151938v-.71443178c0-.08117011.0658037-.1469738.1469958-.1469738h.568198c.0811188 0 .1469225-.06579637.1469225-.14696648v-.56746237c0-.08116937.0658037-.14696941.1469958-.14696941h.5681248c.0811921 0 .1469958.06580004.1469958.14696941v.56746237c0 .08117011.0658037.14696648.1469958.14696648h.5681248c.0811921 0 .1469958.06580369.1469958.1469738v8.33218443c0 .08119209.0658037.14699579.1469225.14699579h.7151206v.7143878c0 .0811921-.0658037.1469958-.1469225.1469958z"/></g></g></svg>