<?xml version="1.0" encoding="UTF-8"?>
<svg width="180px" height="180px" viewBox="0 0 180 180" version="1.1" xmlns="http://www.w3.org/2000/svg" xmlns:xlink="http://www.w3.org/1999/xlink">
    <title>level</title>
    <g id="level" stroke="none" stroke-width="1" fill="none" fill-rule="evenodd">
        <g id="Group" transform="translate(2.758000, 2.256002)">
            <path d="M90.619,173.238 C136.248,173.238 173.238,136.248 173.238,90.619 C173.238,44.99 136.248,8 90.619,8 C44.99,8 8,44.99 8,90.619 C8,136.248 44.99,173.238 90.619,173.238 Z" id="Path" fill="#000000" fill-rule="nonzero"></path>
            <path d="M82.619,165.238 C128.248,165.238 165.238,128.248 165.238,82.619 C165.238,36.99 128.248,0 82.619,0 C36.99,0 0,36.99 0,82.619 C0,128.248 36.99,165.238 82.619,165.238 Z" id="Path-Copy-2" fill="#FFFFFF" fill-rule="nonzero"></path>
            <path d="M82.619,165.238 C128.248,165.238 165.238,128.248 165.238,82.619 C165.238,36.99 128.248,0 82.619,0 C36.99,0 0,36.99 0,82.619 C0,128.248 36.99,165.238 82.619,165.238 Z" id="Path" stroke="#212125" stroke-width="4" stroke-linecap="round" stroke-linejoin="round"></path>
        </g>
        <g id="Group" transform="translate(46.941000, 27.229002)">
            <path d="M79.632,93.199 L78.568,93.199 C77.616,93.199 76.843,93.972 76.843,94.924 L76.843,96.757 C76.843,97.71 76.071,98.482 75.118,98.482 L72.52,98.482 C71.567,98.482 70.795,99.254 70.795,100.207 L70.795,102.962 C70.795,103.914 70.022,104.687 69.07,104.687 L66.069,104.687 C65.117,104.687 64.344,105.459 64.344,106.412 L64.344,110.892 C64.344,111.11 64.222,111.318 64.024,111.41 C57.45,114.467 48.034,115.66 32.507,115.913 C31.547,115.929 30.76,115.153 30.76,114.192 L30.76,26.42 L30.76,7.725 C30.76,6.772 29.987,6 29.035,6 L7.48,6 C6.663,6 6,6.662 6,7.479 L6,8.955 C6,8.957 6.002,8.958 6.003,8.958 C6.005,8.958 6.006,8.959 6.006,8.961 L6.006,11.446 C6.006,12.399 6.779,13.171 7.731,13.171 L11.611,13.171 C12.563,13.171 13.336,13.943 13.336,14.896 L13.336,18.138 C13.336,19.09 14.108,19.863 15.061,19.863 L17.012,19.863 C17.928,19.863 18.685,20.578 18.717,21.494 C18.799,23.825 18.814,26.565 18.814,29.794 L18.814,103.72 C18.814,109.073 18.517,115.585 16.898,119.734 C16.615,120.469 17.157,121.258 17.944,121.258 L74.179,121.258 C74.966,121.258 75.653,120.726 75.849,119.963 L79.638,105.25 L81.926,96.356 L82.201,95.404 C82.521,94.301 81.693,93.199 80.544,93.199 L79.632,93.199 Z" id="Path" stroke="#FF261B" stroke-width="2" fill="#EB402F" fill-rule="nonzero"></path>
            <path d="M73.632,87.199 L72.568,87.199 C71.616,87.199 70.843,87.972 70.843,88.924 L70.843,90.757 C70.843,91.71 70.071,92.482 69.118,92.482 L66.52,92.482 C65.567,92.482 64.795,93.254 64.795,94.207 L64.795,96.962 C64.795,97.914 64.022,98.687 63.07,98.687 L60.069,98.687 C59.117,98.687 58.344,99.459 58.344,100.412 L58.344,104.892 C58.344,105.11 58.222,105.318 58.024,105.41 C51.45,108.467 42.034,109.66 26.507,109.913 C25.547,109.929 24.76,109.153 24.76,108.192 L24.76,20.42 L24.76,1.725 C24.76,0.772 23.987,0 23.035,0 L1.48,0 C0.663,0 0,0.662 0,1.479 L0,2.955 C0,2.957 0.002,2.958 0.003,2.958 C0.005,2.958 0.006,2.959 0.006,2.961 L0.006,5.446 C0.006,6.399 0.779,7.171 1.731,7.171 L5.611,7.171 C6.563,7.171 7.336,7.943 7.336,8.896 L7.336,12.138 C7.336,13.09 8.108,13.863 9.061,13.863 L11.012,13.863 C11.928,13.863 12.685,14.578 12.717,15.494 C12.799,17.825 12.814,20.565 12.814,23.794 L12.814,97.72 C12.814,103.073 12.517,109.585 10.898,113.734 C10.615,114.469 11.157,115.258 11.944,115.258 L68.179,115.258 C68.966,115.258 69.653,114.726 69.849,113.963 L73.638,99.25 L75.926,90.356 L76.201,89.404 C76.521,88.301 75.693,87.199 74.544,87.199 L73.632,87.199 Z" id="Path-Copy" fill="#FFFFFF" fill-rule="nonzero"></path>
            <path d="M73.632,87.199 L72.568,87.199 C71.616,87.199 70.843,87.972 70.843,88.924 L70.843,90.757 C70.843,91.71 70.071,92.482 69.118,92.482 L66.52,92.482 C65.567,92.482 64.795,93.254 64.795,94.207 L64.795,96.962 C64.795,97.914 64.022,98.687 63.07,98.687 L60.069,98.687 C59.117,98.687 58.344,99.459 58.344,100.412 L58.344,104.892 C58.344,105.11 58.222,105.318 58.024,105.41 C51.45,108.467 42.034,109.66 26.507,109.913 C25.547,109.929 24.76,109.153 24.76,108.192 L24.76,20.42 L24.76,1.725 C24.76,0.772 23.987,0 23.035,0 L1.48,0 C0.663,0 0,0.662 0,1.479 L0,2.955 C0,2.957 0.002,2.958 0.003,2.958 C0.005,2.958 0.006,2.959 0.006,2.961 L0.006,5.446 C0.006,6.399 0.779,7.171 1.731,7.171 L5.611,7.171 C6.563,7.171 7.336,7.943 7.336,8.896 L7.336,12.138 C7.336,13.09 8.108,13.863 9.061,13.863 L11.012,13.863 C11.928,13.863 12.685,14.578 12.717,15.494 C12.799,17.825 12.814,20.565 12.814,23.794 L12.814,97.72 C12.814,103.073 12.517,109.585 10.898,113.734 C10.615,114.469 11.157,115.258 11.944,115.258 L68.179,115.258 C68.966,115.258 69.653,114.726 69.849,113.963 L73.638,99.25 L75.926,90.356 L76.201,89.404 C76.521,88.301 75.693,87.199 74.544,87.199 L73.632,87.199 Z" id="Path" stroke="#212125" stroke-width="4"></path>
        </g>
    </g>
</svg>