<svg fill="none" height="441" viewBox="0 0 445 441" width="445" xmlns="http://www.w3.org/2000/svg"><path d="m95.8342 270.093-9.1712-3.099c-.9469-.318-1.9865-.053-2.6619.675l-22.6598 24.455c-1.033 1.112-.8542 2.88.3774 3.767l2.3507 1.696c.8543.615 2.0065.642 2.8872.053l23.2292-15.529z" style="fill:#fff;stroke:#212125;stroke-width:2;stroke-miterlimit:10;stroke-linecap:round;stroke-linejoin:round"/><path d="m348.039 397.704 4.298 8.674c.443.894 1.364 1.444 2.364 1.404l33.314-1.265c1.516-.059 2.642-1.43 2.404-2.933l-.471-2.914c-.165-1.013-.927-1.834-1.933-2.059l-32.083-7.377z" style="fill:#3872f5;stroke:#212125;stroke-width:4;stroke-miterlimit:10;stroke-linecap:round;stroke-linejoin:round"/><path d="m95.2648 81.7793c-.3775 0-.7549.053-1.1323.1192-.3775-.0729-.7549-.1192-1.1324-.1192-.6886 0-1.3641.1324-2.0395.3708-.6754-.2317-1.3574-.3708-2.0395-.3708-17.7597 0-32.1555 79.9777-32.1555 178.6427s14.3958 178.643 32.1555 178.643c.6887 0 1.3641-.132 2.0395-.37.6754.231 1.3575.37 2.0395.37.3775 0 .7549-.053 1.1324-.119.3774.073.7548.119 1.1323.119 17.7592 0 32.1552-79.978 32.1552-178.643s-14.402-178.6427-32.1552-178.6427z" fill="#212125"/><path d="m89.1594 438.401c17.7586 0 32.1556-79.981 32.1556-178.643s-14.397-178.6428-32.1556-178.6428c-17.759 0-32.1555 79.9808-32.1555 178.6428s14.3965 178.643 32.1555 178.643z" fill="#212125"/><g stroke="#212125"><path d="m83.0774 438.401c17.7586 0 32.1556-79.981 32.1556-178.643s-14.397-178.6428-32.1556-178.6428c-17.759 0-32.1555 79.9808-32.1555 178.6428s14.3965 178.643 32.1555 178.643z" fill="#fff" stroke-linecap="round" stroke-linejoin="round" stroke-miterlimit="10" stroke-width="4"/><path d="m91.4289 438.401c17.7591 0 32.1551-79.981 32.1551-178.643s-14.396-178.6428-32.1551-178.6428c-17.759 0-32.1555 79.9808-32.1555 178.6428s14.3965 178.643 32.1555 178.643z" fill="#76f651" stroke-linecap="round" stroke-linejoin="round" stroke-miterlimit="10" stroke-width="4"/><path d="m264.379 172.264 1.549-6.026" stroke-linecap="round" stroke-linejoin="round" stroke-miterlimit="10" stroke-width="2"/><path d="m261.727 101.359s17.203 5.616 19.454 5.616l-4.555 21.209-14.515-9.542z" fill="#3872f5" stroke-linecap="round" stroke-linejoin="round" stroke-miterlimit="10" stroke-width="4"/><path d="m227.858 181.561s-20.62 30.182-20.971 36.194c-.351 6.013-6.364 65.43-6.364 65.43-7.383-1.986-70.27-9.217-94.811-11.992-.192 2.576-.569 5.139-.748 7.721-.02.278.073.55 0 .795.212 2.344.106 4.682.152 7.039 25.044 7.694 74.714 22.699 94.699 26.851 27.235 5.662 28.043-10.257 28.043-10.257l20.335-59.02z" fill="#212125" stroke-linecap="round" stroke-linejoin="round" stroke-miterlimit="10" stroke-width="4"/><path d="m264.384 172.262 4.053 18.72s29.599 45.71 40.048 86.633l47.452 113.623-7.403 6.092s-44.406-50.061-63.126-102.3c0 0-52.127-63.94-54.841-86.812-2.715-22.872-2.715-35.956-2.715-35.956z" fill="#212125" stroke-linecap="round" stroke-linejoin="round" stroke-miterlimit="10" stroke-width="4"/><path d="m243.776 97.416v5.45l19.839 6.569-2.815-12.0587c1.669.5231 3.338 1.0462 5.013 1.5694 1.689.5297 3.536-.2119 4.344-1.7813.007-.0133.013-.0265.02-.0331 3.39-6.6483 2.827-16.5876-3.139-22.5141-1.172-1.1589-3.41-3.5229-6.767-4.0195-10.913-1.6223-21.197 17.4948-21.197 17.4948z" fill="#fff" stroke-linecap="round" stroke-linejoin="round" stroke-miterlimit="10" stroke-width="4"/></g><path d="m270.573 57.1317c-9.959-3.2116-13.8 6.5754-13.8 6.5754s-8.92-5.2775-17.707.7483c.961-9.4626-8.999-16.9717-18.508-18.104-4.171-.4966-8.714-.0993-12.038 2.4765-6.854 5.3107-5.039 16.2764-9.423 23.7591-3.337 5.6947-9.972 8.7076-16.488 9.7671-4.702.7682-10.165 1.0463-13.012 4.8671-1.218 1.6422-1.728 3.6949-2.152 5.6947-2.907 13.7271-4.02 29.2021-14.25 38.7971-5.404 5.066-12.694 7.688-19.991 8.992-6 1.08-12.893 1.775-16.489 6.695-1.576 2.152-2.245 4.814-2.754 7.43-1.497 7.721-1.775 16.005 1.49 23.156 5.582 12.244 21.342 18.111 34.155 13.992 12.747-4.092 21.507-15.892 27.03-28.09 5.278-11.661 9.284-25.341 20.422-31.639 4.761-2.688 10.568-3.814 14.303-7.807 3.701-3.953 4.45-9.727 5.754-14.985 2.066-8.317 5.96-16.1703 11.323-22.8451 2.146 9.3368 15.323 10.7936 15.323 10.7936 2.609.2914 4.212-.6688 5.178-1.7945.974-1.1323 1.411-2.6355 1.345-4.132l-.212-4.4432s-7.47.6158-4.046-4.5956c3.423-5.2113 6.84.4437 6.84.4437 6.086 1.3243 4.318-.3311 6.198-4.4234 1.881-4.0923 7.966-3.8737 7.966-3.8737 14.608-8.8269 3.543-17.4551 3.543-17.4551z" fill="#212125"/><path d="m223.09 94.5395s9.191-.5364 20.686 8.3305c0 0 20.263 6.522 28.818 5.211 0 0-4.926 1.94-2.847 15.27z" style="fill:#3872f5;stroke:#212125;stroke-width:4;stroke-miterlimit:10;stroke-linecap:round;stroke-linejoin:round"/><path d="m264.384 172.263h-6.357l2.364-8.986 5.543 2.96z" style="fill:#fff;stroke:#212125;stroke-width:2;stroke-miterlimit:10;stroke-linecap:round;stroke-linejoin:round"/><path d="m4.36012 184.607c1.52136 0 2.75467-1.233 2.75467-2.755 0-1.521-1.23331-2.754-2.75467-2.754s-2.75465 1.233-2.75465 2.754c0 1.522 1.23329 2.755 2.75465 2.755z" fill="#212125"/><path d="m3.75467 184.017c1.52137 0 2.75468-1.233 2.75468-2.755 0-1.521-1.23331-2.754-2.75468-2.754-1.52136 0-2.75467 1.233-2.75467 2.754 0 1.522 1.23331 2.755 2.75467 2.755z" style="fill:#fff;stroke:#212125;stroke-width:2;stroke-miterlimit:10;stroke-linecap:round;stroke-linejoin:round"/><path d="m250.576 252.059-17.326-34.055" stroke="#fff" stroke-linecap="round" stroke-linejoin="round" stroke-miterlimit="10" stroke-width="4"/><path d="m259.952 162.953c-9.641 42.194-39.413 75.826-39.413 75.826l-3.927-5.244s-12.68-19.442-35.499-19.442-26.765-18.309-26.765-18.309c10.707-4.51 22.256-12.959 22.256-12.959 36.625-28.169 46.485-88.282 46.485-88.282 10.244 1.0595 76.051 50.478 84.832 55.305 8.78 4.828 48.014-3.291 48.014-3.291-2.026 19.316 9.489 23.263 9.489 23.263s-8.999 5.045-18.216 5.045c-9.218 0-29.633 3.51-29.633 3.51s-5.271 6.145-10.754 6.364c-5.489.218-14.925-6.145-14.925-6.145-15.806-5.046-38.407-19.972-38.407-19.972" fill="#3872f5"/><path d="m259.952 162.953c-9.641 42.194-39.413 75.826-39.413 75.826l-3.926-5.244s-12.681-19.442-35.5-19.442-26.765-18.309-26.765-18.309c10.707-4.51 22.256-12.959 22.256-12.959 36.625-28.169 46.485-88.282 46.485-88.282 10.244 1.0595 76.051 50.478 84.832 55.305 8.78 4.828 48.014-3.291 48.014-3.291-2.026 19.316 9.489 23.263 9.489 23.263s-8.999 5.045-18.216 5.045c-9.218 0-29.633 3.51-29.633 3.51s-5.271 6.145-10.754 6.364c-5.489.218-14.925-6.145-14.925-6.145-15.806-5.046-38.407-19.972-38.407-19.972" stroke="#212125" stroke-linecap="round" stroke-linejoin="round" stroke-miterlimit="10" stroke-width="4"/><path d="m377.394 3.58203c-.378 0-.755.05297-1.133.11919-.377-.07284-.754-.11919-1.132-.11919-.689 0-1.364.13244-2.039.37082-.676-.23176-1.358-.37082-2.04-.37082-17.76 0-32.155 79.97817-32.155 178.64297 0 98.665 14.395 178.643 32.155 178.643.689 0 1.364-.132 2.04-.371.675.232 1.357.371 2.039.371.378 0 .755-.053 1.132-.119.378.073.755.119 1.133.119 17.759 0 32.155-79.978 32.155-178.643 0-98.6648-14.396-178.64297-32.155-178.64297z" fill="#212125"/><path d="m355.932 146.552 29.017-6.138s4.073.358.563 2.483c-3.51 2.119-12.773 3.655-12.773 3.655l8.416 3.517s2.099 2.384.417 6.026c-1.682 3.641-3.099 0-3.099 0l.437-3.338-8.072-2.073s4.649 6.967-3.099 8.132c-7.754 1.165-11.813 0-11.813 0v-12.264z" style="fill:#fff;stroke:#212125;stroke-width:2;stroke-miterlimit:10;stroke-linecap:round;stroke-linejoin:round"/><path d="m369.288 360.204c17.759 0 32.156-79.981 32.156-178.643 0-98.6618-14.397-178.64303-32.156-178.64303s-32.155 79.98123-32.155 178.64303c0 98.662 14.396 178.643 32.155 178.643z" fill="#212125"/><path d="m363.206 360.204c17.759 0 32.156-79.981 32.156-178.643 0-98.6618-14.397-178.64303-32.156-178.64303s-32.155 79.98123-32.155 178.64303c0 98.662 14.396 178.643 32.155 178.643z" style="fill:#fff;stroke:#212125;stroke-width:4;stroke-miterlimit:10;stroke-linecap:round;stroke-linejoin:round"/><path d="m372.558 360.204c17.759 0 32.155-79.981 32.155-178.643 0-98.6618-14.396-178.64303-32.155-178.64303s-32.156 79.98123-32.156 178.64303c0 98.662 14.397 178.643 32.156 178.643z" style="fill:#eb4130;stroke:#212125;stroke-width:4;stroke-miterlimit:10;stroke-linecap:round;stroke-linejoin:round"/><path d="m380.063 107.125c2.769 0 5.013-2.244 5.013-5.013 0-2.7681-2.244-5.0124-5.013-5.0124-2.768 0-5.012 2.2443-5.012 5.0124 0 2.769 2.244 5.013 5.012 5.013z" fill="#212125"/><path d="m378.958 106.053c2.768 0 5.013-2.245 5.013-5.013 0-2.7684-2.245-5.0127-5.013-5.0127s-5.013 2.2443-5.013 5.0127c0 2.768 2.245 5.013 5.013 5.013z" style="fill:#fff;stroke:#212125;stroke-width:4;stroke-miterlimit:10;stroke-linecap:round;stroke-linejoin:round"/><path d="m218.502 178.508-18.389 20.355" stroke="#212125" stroke-linecap="round" stroke-linejoin="round" stroke-miterlimit="10" stroke-width="4"/><path d="m388.014 167.113s2-6.695-1.901-10.549z" fill="#fff"/><path d="m388.014 167.113s2-6.695-1.901-10.549" stroke="#212125" stroke-linecap="round" stroke-linejoin="round" stroke-miterlimit="10" stroke-width="4"/><path d="m368.507 145.949c-1.091-10.225-3.73-15.23-6.711-15.23-3.973 0-7.194 12.748-7.194 28.474 0 15.725 3.221 28.473 7.194 28.473 3.058 0 5.007-4.586 6.049-15.23" stroke="#212125" stroke-width="4"/><circle cx="438.715" cy="174.465" fill="#212125" r="6"/><path d="m111.57 279.047c0 9.76-.991 18.529-2.558 24.799-.788 3.151-1.694 5.559-2.623 7.131-1.009 1.706-1.668 1.828-1.758 1.828-.091 0-.75-.122-1.758-1.828-.929-1.572-1.835-3.98-2.623-7.131-1.5677-6.27-2.5586-15.039-2.5586-24.799s.9909-18.529 2.5586-24.8c.788-3.15 1.694-5.558 2.623-7.13 1.008-1.706 1.667-1.828 1.758-1.828.09 0 .749.122 1.758 1.828.929 1.572 1.835 3.98 2.623 7.13 1.567 6.271 2.558 15.04 2.558 24.8z" stroke="#212125" stroke-width="4"/><path d="m105.298 265.805c-.662 5.518-1.788 18.872-.993 28.142" stroke="#212125" stroke-linecap="round" stroke-width="4"/><path d="m92.3866 260.506c-.9933 6.511-2.3839 22.845 0 36.089" stroke="#212125" stroke-linecap="round" stroke-width="4"/><path d="m349.953 139.328c-.221.993-3.642 10.595-1.987 27.812" stroke="#212125" stroke-linecap="round" stroke-linejoin="round" stroke-width="4"/><path d="m349.619 179.059c-.221-.994-.662-3.709-.662-6.622" stroke="#212125" stroke-linecap="round" stroke-linejoin="round" stroke-width="4"/><path d="m407.531 137.713-29.017 6.138c-.308 2.797-.51 13.119 1.153 16.032 0 0 2.907 1.397 10.661.232 7.747-1.166 3.099-8.132 3.099-8.132l8.072 2.073-.437 3.337s3.417 3.642 5.099 0c1.675-3.642-.424-8.026-.424-8.026l-9.737-2.867s8.99-1.381 12.5-3.5c3.51-2.126-.969-5.287-.969-5.287z" style="fill:#fff;stroke:#212125;stroke-width:4;stroke-miterlimit:10;stroke-linecap:round;stroke-linejoin:round"/><path d="m378.516 143.852s-11.092 1.999-22.024 3.423c-1.338 3.861-3.211 14.631 0 26.818 1.099-1.536 13.297-1.933 13.297-1.933 9.217 0 18.216-5.046 18.216-5.046s-11.515-3.947-9.489-23.262z" style="fill:#3872f5;stroke:#212125;stroke-width:4;stroke-miterlimit:10;stroke-linecap:round;stroke-linejoin:round"/></svg>